<svg width="40" height="40" viewBox="0 0 40 40" fill="none" xmlns="http://www.w3.org/2000/svg">
<rect x="4.95703" y="3.52686" width="30.0866" height="32.9463" rx="4.48463" fill="#020202"/>
<path d="M29.6229 14.8405H10.4275C9.91697 14.8405 9.51172 14.4186 9.51172 13.9154C9.51172 13.4048 9.91512 12.9819 10.4275 12.9819H29.6229C30.1373 12.9819 30.5453 13.4011 30.5453 13.9154C30.5453 14.4241 30.1354 14.8405 29.6229 14.8405Z" fill="white"/>
<path d="M10.4275 19.4637H29.6229C30.1354 19.4637 30.5453 19.0474 30.5453 18.5387C30.5453 18.016 30.1373 17.5949 29.6229 17.5949H10.4275C9.91512 17.5949 9.51172 18.0197 9.51172 18.5387C9.51172 19.0419 9.91697 19.4637 10.4275 19.4637Z" fill="white"/>
<path d="M10.4275 24.0988H29.6229C30.1354 24.0988 30.5453 23.6723 30.5453 23.1551C30.5453 22.6408 30.1373 22.23 29.6229 22.23H10.4275C9.91512 22.23 9.51172 22.6445 9.51172 23.1551C9.51172 23.6667 9.91697 24.0988 10.4275 24.0988Z" fill="white"/>
</svg>
