<svg width="42" height="40" viewBox="0 0 42 40" fill="none" xmlns="http://www.w3.org/2000/svg">
<path d="M7.68302 29.7529H29.5661C32.105 29.7529 34.0988 29.4769 35.5318 28.0439C36.9674 26.6084 37.2294 24.6475 37.2294 22.1011V17.8988C37.2294 15.3525 36.9674 13.3866 35.5318 11.9561C34.0963 10.523 32.105 10.2471 29.5661 10.2471H7.66015C5.15569 10.2471 3.16182 10.523 1.72628 11.9561C0.293246 13.3891 0.03125 15.364 0.03125 17.8645V22.1011C0.03125 24.6475 0.293246 26.6134 1.72628 28.0439C3.16434 29.4769 5.15569 29.7529 7.68302 29.7529ZM39.2573 23.7833C40.4121 23.7111 41.9663 22.2292 41.9663 19.9943C41.9663 17.7683 40.4121 16.2889 39.2573 16.2167V23.7833Z" fill="#020202"/>
</svg>
