<svg width="40" height="40" viewBox="0 0 40 40" fill="none" xmlns="http://www.w3.org/2000/svg">
<g clip-path="url(#clip0_7329_30237)">
<path d="M2.29785 3.71668C2.12522 3.71424 1.95383 3.74613 1.79363 3.81051C1.63344 3.87488 1.48764 3.97045 1.3647 4.09166C1.24176 4.21287 1.14414 4.35731 1.07751 4.51658C1.01088 4.67585 0.976562 4.84677 0.976562 5.01941C0.976562 5.19206 1.01088 5.36298 1.07751 5.52225C1.14414 5.68152 1.24176 5.82595 1.3647 5.94717C1.48764 6.06838 1.63344 6.16395 1.79363 6.22832C1.95383 6.29269 2.12522 6.32458 2.29785 6.32214H4.74555C5.03984 6.32214 5.28541 6.50643 5.36893 6.79031L10.9208 25.6646C11.4081 27.3213 12.9404 28.4686 14.6687 28.4686H28.9682C30.7248 28.4686 32.2758 27.2814 32.739 25.5883L36.123 13.1793C36.1758 12.986 36.1833 12.7831 36.145 12.5864C36.1066 12.3897 36.0234 12.2045 35.9018 12.0453C35.7801 11.886 35.6234 11.7569 35.4438 11.6681C35.2642 11.5792 35.0665 11.533 34.8661 11.5331H9.48067L7.87007 6.05498H7.86753C7.46122 4.67397 6.1839 3.71668 4.74555 3.71668H2.29785ZM15.3251 31.074C14.6341 31.074 13.9714 31.3485 13.4828 31.8371C12.9942 32.3258 12.7197 32.9885 12.7197 33.6795C12.7197 34.3705 12.9942 35.0332 13.4828 35.5218C13.9714 36.0104 14.6341 36.2849 15.3251 36.2849C16.0162 36.2849 16.6789 36.0104 17.1675 35.5218C17.6561 35.0332 17.9306 34.3705 17.9306 33.6795C17.9306 32.9885 17.6561 32.3258 17.1675 31.8371C16.6789 31.3485 16.0162 31.074 15.3251 31.074ZM28.3524 31.074C27.6614 31.074 26.9987 31.3485 26.5101 31.8371C26.0215 32.3258 25.747 32.9885 25.747 33.6795C25.747 34.3705 26.0215 35.0332 26.5101 35.5218C26.9987 36.0104 27.6614 36.2849 28.3524 36.2849C29.0435 36.2849 29.7062 36.0104 30.1948 35.5218C30.6834 35.0332 30.9579 34.3705 30.9579 33.6795C30.9579 32.9885 30.6834 32.3258 30.1948 31.8371C29.7062 31.3485 29.0435 31.074 28.3524 31.074Z" fill="#FEFEFE"/>
</g>
<defs>
<clipPath id="clip0_7329_30237">
<rect width="40" height="40" fill="white"/>
</clipPath>
</defs>
</svg>
