<svg width="40" height="40" viewBox="0 0 40 40" fill="none" xmlns="http://www.w3.org/2000/svg">
<g clip-path="url(#clip0_7329_30236)">
<path d="M8.92549 35.267C10.707 35.267 14.9999 33.3929 17.6351 31.5161C17.9158 31.3246 18.1367 31.2539 18.3707 31.2539C18.556 31.2659 18.7306 31.2779 18.8947 31.2779C29.4719 31.2701 36.959 25.4777 36.959 17.6424C36.959 10.0896 29.4206 4 20.0023 4C10.5813 4 3.04297 10.0896 3.04297 17.6424C3.04297 22.351 5.87861 26.5594 10.6836 29.1502C10.9481 29.2963 11.024 29.516 10.8884 29.7727C10.0312 31.1863 8.60059 32.7818 8.02549 33.53C7.38037 34.3442 7.75273 35.267 8.92549 35.267Z" fill="white"/>
</g>
<defs>
<clipPath id="clip0_7329_30236">
<rect width="40" height="40" fill="white"/>
</clipPath>
</defs>
</svg>
