<svg width="24" height="20" viewBox="0 0 24 20" fill="none" xmlns="http://www.w3.org/2000/svg">
<g clip-path="url(#clip0_5574_60397)">
<g filter="url(#filter0_d_5574_60397)">
<path d="M14.3104 14.2129L18.2747 10.1429C18.9829 9.41586 18.9829 8.23717 18.2747 7.51017L13.8211 2.93771C13.3796 2.48442 12.6613 2.49264 12.2298 2.95592V2.95592" stroke="#8DC1FF" stroke-linecap="round"/>
<rect x="2.24194" y="1.67194" width="10.0288" height="16.6561" rx="2.04042" fill="#E3EFFF" stroke="#2388FF"/>
<mask id="path-3-inside-1_5574_60397" fill="white">
<ellipse cx="7.25637" cy="15.4073" rx="0.725" ry="0.724891"/>
</mask>
<ellipse cx="7.25637" cy="15.4073" rx="0.725" ry="0.724891" fill="#2388FF"/>
<path d="M6.98137 15.4073C6.98137 15.2552 7.10464 15.1322 7.25637 15.1322V17.1322C8.20892 17.1322 8.98137 16.3601 8.98137 15.4073H6.98137ZM7.25637 15.1322C7.40811 15.1322 7.53137 15.2552 7.53137 15.4073H5.53137C5.53137 16.3601 6.30382 17.1322 7.25637 17.1322V15.1322ZM7.53137 15.4073C7.53137 15.5594 7.40811 15.6824 7.25637 15.6824V13.6824C6.30382 13.6824 5.53137 14.4545 5.53137 15.4073H7.53137ZM7.25637 15.6824C7.10464 15.6824 6.98137 15.5594 6.98137 15.4073H8.98137C8.98137 14.4545 8.20892 13.6824 7.25637 13.6824V15.6824Z" fill="#2388FF" mask="url(#path-3-inside-1_5574_60397)"/>
</g>
</g>
<defs>
<filter id="filter0_d_5574_60397" x="-0.258057" y="0.171936" width="21.5573" height="21.6561" filterUnits="userSpaceOnUse" color-interpolation-filters="sRGB">
<feFlood flood-opacity="0" result="BackgroundImageFix"/>
<feColorMatrix in="SourceAlpha" type="matrix" values="0 0 0 0 0 0 0 0 0 0 0 0 0 0 0 0 0 0 127 0" result="hardAlpha"/>
<feOffset dy="1"/>
<feGaussianBlur stdDeviation="1"/>
<feComposite in2="hardAlpha" operator="out"/>
<feColorMatrix type="matrix" values="0 0 0 0 0.1375 0 0 0 0 0.53425 0 0 0 0 1 0 0 0 0.15 0"/>
<feBlend mode="normal" in2="BackgroundImageFix" result="effect1_dropShadow_5574_60397"/>
<feBlend mode="normal" in="SourceGraphic" in2="effect1_dropShadow_5574_60397" result="shape"/>
</filter>
<clipPath id="clip0_5574_60397">
<rect width="24" height="20" fill="white"/>
</clipPath>
</defs>
</svg>
