<svg width="32" height="32" viewBox="0 0 32 32" fill="none" xmlns="http://www.w3.org/2000/svg">
<rect width="32" height="32" fill="#020202"/>
<path fill-rule="evenodd" clip-rule="evenodd" d="M18.223 8.69457H13.7766C11.6956 8.69457 10.0085 10.3816 10.0085 12.4627V19.5373C10.0085 21.6184 11.6956 23.3054 13.7766 23.3054H18.223C20.3041 23.3054 21.9911 21.6184 21.9911 19.5373V12.4627C21.9911 10.3816 20.3041 8.69457 18.223 8.69457ZM13.7766 4.625C9.44801 4.625 5.93896 8.13405 5.93896 12.4627V19.5373C5.93896 23.866 9.44801 27.375 13.7766 27.375H18.223C22.5517 27.375 26.0607 23.8659 26.0607 19.5373V12.4627C26.0607 8.13405 22.5517 4.625 18.223 4.625H13.7766Z" fill="white"/>
</svg>
