<svg width="15" height="15" viewBox="0 0 15 15" fill="none" xmlns="http://www.w3.org/2000/svg">
<g clip-path="url(#clip0_5468_58196)">
<path d="M14.0655 7.63093C14.0655 7.15817 14.0197 6.67016 13.9435 6.21265H7.34009V8.91196H11.1222C10.9697 9.78123 10.4664 10.5437 9.71914 11.0318L11.9762 12.7855C13.303 11.5503 14.0655 9.75073 14.0655 7.63093Z" fill="#4285F4"/>
<path d="M7.34127 14.4631C9.23231 14.4631 10.8183 13.8378 11.9774 12.7703L9.72032 11.0317C9.09506 11.4587 8.28679 11.7028 7.34127 11.7028C5.51123 11.7028 3.97094 10.4675 3.40668 8.82043L1.08862 10.6047C2.27815 12.9685 4.68771 14.4631 7.34127 14.4631Z" fill="#34A353"/>
<path d="M3.40623 8.80523C3.11648 7.93596 3.11648 6.99044 3.40623 6.12117L1.08818 4.32162C0.0969083 6.30417 0.0969083 8.63747 1.08818 10.6048L3.40623 8.80523Z" fill="#F6B704"/>
<path d="M7.34127 3.23887C8.33254 3.22362 9.30856 3.60488 10.0253 4.29115L12.0231 2.2781C10.7573 1.08857 9.07981 0.448059 7.34127 0.463309C4.68771 0.463309 2.27815 1.95784 1.08862 4.32165L3.40668 6.12119C3.97094 4.4589 5.51123 3.23887 7.34127 3.23887Z" fill="#E54335"/>
</g>
<defs>
<clipPath id="clip0_5468_58196">
<rect width="15" height="15" fill="white"/>
</clipPath>
</defs>
</svg>
