<svg width="24" height="20" viewBox="0 0 24 20" fill="none" xmlns="http://www.w3.org/2000/svg">
<g clip-path="url(#clip0_5574_60442)">
<g filter="url(#filter0_d_5574_60442)">
<path d="M4.08678 18.0121H16.3971C17.6922 18.0121 18.7419 16.9623 18.7419 15.6673V8.20816C18.7419 7.37293 18.3314 6.59105 17.6438 6.11686L11.6842 2.00678C10.8159 1.40796 9.66792 1.40796 8.79964 2.00679L2.84007 6.11686C2.1525 6.59105 1.74194 7.37292 1.74194 8.20816V15.6673C1.74194 16.9623 2.79177 18.0121 4.08678 18.0121Z" fill="white"/>
<path d="M16.3971 17.5121H4.08678C3.06791 17.5121 2.24194 16.6862 2.24194 15.6673V8.20816C2.24194 7.53731 2.5717 6.90933 3.12394 6.52846L9.0835 2.41839C9.7809 1.93743 10.7029 1.93743 11.4003 2.41839L17.3599 6.52847C17.9122 6.90933 18.2419 7.53732 18.2419 8.20816V15.6673C18.2419 16.6862 17.416 17.5121 16.3971 17.5121Z" stroke="#2388FF"/>
</g>
<path d="M7.60327 13.5327C7.60327 12.2752 8.65314 11.2559 9.94807 11.2559H10.5343C11.8293 11.2559 12.8791 12.2752 12.8791 13.5327V17.517H7.60327V13.5327Z" fill="#E3EFFF" stroke="#8DC1FF" stroke-linecap="round" stroke-linejoin="round"/>
</g>
<defs>
<filter id="filter0_d_5574_60442" x="-0.258057" y="0.557663" width="21" height="20.4544" filterUnits="userSpaceOnUse" color-interpolation-filters="sRGB">
<feFlood flood-opacity="0" result="BackgroundImageFix"/>
<feColorMatrix in="SourceAlpha" type="matrix" values="0 0 0 0 0 0 0 0 0 0 0 0 0 0 0 0 0 0 127 0" result="hardAlpha"/>
<feOffset dy="1"/>
<feGaussianBlur stdDeviation="1"/>
<feComposite in2="hardAlpha" operator="out"/>
<feColorMatrix type="matrix" values="0 0 0 0 0.1375 0 0 0 0 0.53425 0 0 0 0 1 0 0 0 0.15 0"/>
<feBlend mode="normal" in2="BackgroundImageFix" result="effect1_dropShadow_5574_60442"/>
<feBlend mode="normal" in="SourceGraphic" in2="effect1_dropShadow_5574_60442" result="shape"/>
</filter>
<clipPath id="clip0_5574_60442">
<rect width="24" height="20" fill="white"/>
</clipPath>
</defs>
</svg>
