<svg width="24" height="20" viewBox="0 0 24 20" fill="none" xmlns="http://www.w3.org/2000/svg">
<g clip-path="url(#clip0_5574_60468)">
<g filter="url(#filter0_d_5574_60468)">
<path d="M6.06451 5.02536H3.58364C3.45349 5.02536 3.32293 5.03215 3.19765 5.06743C2.61963 5.2302 1.74194 5.77893 1.74194 7.03265C1.74194 8.43457 1.74194 11.7621 1.74194 13.2507C1.81249 13.8253 2.2405 14.9747 3.38813 14.9747C4.53576 14.9747 5.65056 14.9747 6.06451 14.9747" stroke="#2388FF" stroke-linecap="round"/>
<path d="M14.4194 5.02536H16.9002C17.0304 5.02536 17.161 5.03215 17.2862 5.06743C17.8643 5.2302 18.7419 5.77893 18.7419 7.03265C18.7419 8.43457 18.7419 11.7621 18.7419 13.2507C18.6714 13.8253 18.2434 14.9747 17.0958 14.9747C15.9481 14.9747 14.8333 14.9747 14.4194 14.9747" stroke="#2388FF" stroke-linecap="round"/>
<line x1="8.37012" y1="3.29037" x2="12.0325" y2="3.29037" stroke="#8DC1FF" stroke-linecap="round" stroke-linejoin="round"/>
<line x1="8.37012" y1="16.8329" x2="12.0325" y2="16.8329" stroke="#8DC1FF" stroke-linecap="round" stroke-linejoin="round"/>
<path d="M10.276 16.8329L10.276 3.44051" stroke="#8DC1FF" stroke-linecap="round" stroke-linejoin="round"/>
</g>
</g>
<defs>
<filter id="filter0_d_5574_60468" x="-0.758057" y="1.79037" width="22" height="18.5425" filterUnits="userSpaceOnUse" color-interpolation-filters="sRGB">
<feFlood flood-opacity="0" result="BackgroundImageFix"/>
<feColorMatrix in="SourceAlpha" type="matrix" values="0 0 0 0 0 0 0 0 0 0 0 0 0 0 0 0 0 0 127 0" result="hardAlpha"/>
<feOffset dy="1"/>
<feGaussianBlur stdDeviation="1"/>
<feComposite in2="hardAlpha" operator="out"/>
<feColorMatrix type="matrix" values="0 0 0 0 0.1375 0 0 0 0 0.53425 0 0 0 0 1 0 0 0 0.15 0"/>
<feBlend mode="normal" in2="BackgroundImageFix" result="effect1_dropShadow_5574_60468"/>
<feBlend mode="normal" in="SourceGraphic" in2="effect1_dropShadow_5574_60468" result="shape"/>
</filter>
<clipPath id="clip0_5574_60468">
<rect width="24" height="20" fill="white"/>
</clipPath>
</defs>
</svg>
