<svg width="137" height="28" viewBox="0 0 137 28" fill="none" xmlns="http://www.w3.org/2000/svg">
<path fill-rule="evenodd" clip-rule="evenodd" d="M14.0536 7.24508H9.94672C8.02456 7.24508 6.46633 8.8033 6.46633 10.7255V17.2599C6.46633 19.182 8.02456 20.7403 9.94672 20.7403H14.0536C15.9757 20.7403 17.534 19.182 17.534 17.2599V10.7255C17.534 8.8033 15.9757 7.24508 14.0536 7.24508ZM9.94672 3.48627C5.94862 3.48627 2.70752 6.72737 2.70752 10.7255V17.2599C2.70752 21.258 5.94862 24.4991 9.94672 24.4991H14.0536C18.0517 24.4991 21.2928 21.258 21.2928 17.2599V10.7255C21.2928 6.72737 18.0517 3.48627 14.0536 3.48627H9.94672Z" fill="#020202"/>
<path d="M32.8146 20C30.6346 20 30.0746 19 30.0746 17.38V11.64H28.1546V9.28H30.0746V6.36L32.9946 6.08V9.28H35.1546V11.64H32.9946V16.82C32.9946 17.46 33.2946 17.62 33.8546 17.62H35.1546V20H32.8146ZM41.3965 20.18C38.0365 20.18 36.0565 18 36.0565 14.72C36.0565 11.26 38.1165 9.08 41.2965 9.08C45.0165 9.08 46.7765 11.74 46.4165 15.3H38.9565C38.9365 17 39.9165 17.96 41.3965 17.96C42.5165 17.96 43.3565 17.42 43.5765 16.6H46.3565C46.0765 18.76 44.0965 20.18 41.3965 20.18ZM41.2965 11.3C39.9565 11.3 39.0965 12.12 38.9765 13.42H43.5365C43.4565 12 42.5165 11.3 41.2965 11.3ZM53.2125 20.18C49.9925 20.18 47.8925 17.98 47.8925 14.64C47.8925 11.28 50.0125 9.08 53.3125 9.08C56.0725 9.08 58.0525 10.76 58.1725 13.18H55.2925C55.1125 12.06 54.2925 11.48 53.2325 11.48C51.6725 11.48 50.8725 12.72 50.8725 14.64C50.8725 16.74 51.8125 17.78 53.2125 17.78C54.4525 17.78 55.2125 17.08 55.3325 16.04H58.1925C58.0725 18.56 56.0325 20.18 53.2125 20.18ZM59.9973 20V5.42H62.9373V11.22H63.0573C63.6373 9.8 64.9573 9.08 66.4773 9.08C68.6173 9.08 70.2573 10.3 70.2573 13.52V20H67.3173V14.16C67.3173 12.36 66.7173 11.48 65.2973 11.48C63.7773 11.48 62.9373 12.68 62.9373 14.04V20H59.9973ZM73.7801 20L71.2201 9.28H74.2601L75.9201 17.06H76.0401L77.5601 9.28H80.7601L82.2801 17.1H82.3601L84.0401 9.28H86.9601L84.3801 20H80.5401L79.0801 13.02H78.9801L77.5601 20H73.7801ZM91.8209 20.18C89.2609 20.18 87.5409 18.32 87.5409 14.64C87.5409 10.94 89.2609 9.08 91.8209 9.08C93.4809 9.08 94.7209 9.9 95.2209 11.14H95.3809L95.5009 9.28H98.3209V20H95.3809V18.12H95.2209C94.7209 19.36 93.4809 20.18 91.8209 20.18ZM92.9409 17.8C94.5809 17.8 95.3409 16.52 95.3409 15.14V14.12C95.3409 12.74 94.5809 11.46 92.9409 11.46C91.5009 11.46 90.5409 12.46 90.5409 14.64C90.5409 16.8 91.5009 17.8 92.9409 17.8ZM100.837 20V9.28H103.497L103.617 11H103.717C104.197 9.62 105.317 9.14 106.677 9.14H107.277V11.9H106.617C104.637 11.9 103.817 12.8 103.777 14.4V20H100.837ZM113.33 20.18C109.97 20.18 107.99 18 107.99 14.72C107.99 11.26 110.05 9.08 113.23 9.08C116.95 9.08 118.71 11.74 118.35 15.3H110.89C110.87 17 111.85 17.96 113.33 17.96C114.45 17.96 115.29 17.42 115.51 16.6H118.29C118.01 18.76 116.03 20.18 113.33 20.18ZM113.23 11.3C111.89 11.3 111.03 12.12 110.91 13.42H115.47C115.39 12 114.45 11.3 113.23 11.3ZM123.189 20L127.209 14.5L123.549 9.28H127.049L129.189 12.5H129.309L131.429 9.28H134.769L131.209 14.42L135.149 20H131.689L129.209 16.36H129.089L126.489 20H123.189Z" fill="#020202"/>
</svg>
