<svg width="40" height="40" viewBox="0 0 40 40" fill="none" xmlns="http://www.w3.org/2000/svg">
<g clip-path="url(#clip0_7329_30414)">
<path d="M20.5 2.4375C16.9457 2.44153 13.5381 3.85527 11.0248 6.36855C8.51152 8.88184 7.09778 12.2894 7.09375 15.8438C7.09375 27.3152 19.2813 35.979 19.8007 36.3416C20.0057 36.4852 20.2498 36.5622 20.5 36.5622C20.7502 36.5622 20.9943 36.4852 21.1993 36.3416C21.7187 35.979 33.9062 27.3152 33.9062 15.8438C33.9022 12.2894 32.4885 8.88184 29.9752 6.36855C27.4619 3.85527 24.0543 2.44153 20.5 2.4375ZM20.5 10.9688C21.4642 10.9687 22.4067 11.2547 23.2084 11.7903C24.0101 12.326 24.6349 13.0874 25.0039 13.9782C25.3729 14.869 25.4694 15.8492 25.2813 16.7948C25.0932 17.7405 24.6289 18.6091 23.9471 19.2909C23.2654 19.9727 22.3967 20.437 21.4511 20.6251C20.5054 20.8132 19.5252 20.7166 18.6344 20.3477C17.7436 19.9787 16.9823 19.3538 16.4466 18.5522C15.9109 17.7505 15.625 16.8079 15.625 15.8438C15.625 14.5508 16.1386 13.3108 17.0529 12.3966C17.9671 11.4824 19.2071 10.9688 20.5 10.9688Z" fill="#020202"/>
</g>
<defs>
<clipPath id="clip0_7329_30414">
<rect width="39" height="39" fill="white" transform="translate(1)"/>
</clipPath>
</defs>
</svg>
