<svg width="40" height="40" viewBox="0 0 40 40" fill="none" xmlns="http://www.w3.org/2000/svg">
<g clip-path="url(#clip0_7329_30411)">
<path d="M12.0521 37.6154H28.3968C31.0475 37.6154 32.4371 36.194 32.4371 33.3325V20.9703C32.4371 18.1183 31.0475 16.7111 28.3968 16.7111H12.0521C9.3983 16.7111 8.01172 18.1183 8.01172 20.9703V33.3325C8.01172 36.194 9.3983 37.6154 12.0521 37.6154ZM11.2045 18.1776H14.473V12.2906C14.473 8.2063 17.0947 5.96482 20.2173 5.96482C23.3336 5.96482 25.9932 8.2063 25.9932 12.2906V18.1776H29.2474V12.6149C29.2474 6.17463 24.9851 2.83911 20.2173 2.83911C15.4637 2.83911 11.2045 6.17463 11.2045 12.6149V18.1776Z" fill="#020202"/>
</g>
<defs>
<clipPath id="clip0_7329_30411">
<rect width="40" height="40" fill="white"/>
</clipPath>
</defs>
</svg>
