<svg width="29" height="30" viewBox="0 0 29 30" fill="none" xmlns="http://www.w3.org/2000/svg">
<g opacity="0.2" filter="url(#filter0_f_5391_57649)">
<path fill-rule="evenodd" clip-rule="evenodd" d="M22.6156 10.4846C24.3758 10.4846 25.8026 9.05855 25.8026 7.29937C25.8026 5.5402 24.3758 4.11411 22.6156 4.11411C20.8556 4.11411 19.4287 5.5402 19.4287 7.29937C19.4287 9.05855 20.8556 10.4846 22.6156 10.4846Z" fill="#E3EFFF" stroke="#2388FF"/>
<path fill-rule="evenodd" clip-rule="evenodd" d="M22.6156 18.8417C24.3758 18.8417 25.8026 17.4157 25.8026 15.6565C25.8026 13.8973 24.3758 12.4712 22.6156 12.4712C20.8556 12.4712 19.4287 13.8973 19.4287 15.6565C19.4287 17.4157 20.8556 18.8417 22.6156 18.8417Z" fill="#E3EFFF" stroke="#2388FF"/>
<path fill-rule="evenodd" clip-rule="evenodd" d="M22.6156 27.1988C24.3758 27.1988 25.8026 25.7727 25.8026 24.0136C25.8026 22.2544 24.3758 20.8283 22.6156 20.8283C20.8556 20.8283 19.4287 22.2544 19.4287 24.0136C19.4287 25.7727 20.8556 27.1988 22.6156 27.1988Z" fill="#E3EFFF" stroke="#2388FF"/>
<path fill-rule="evenodd" clip-rule="evenodd" d="M14.5004 18.8417C16.2605 18.8417 17.6874 17.4157 17.6874 15.6565C17.6874 13.8973 16.2605 12.4712 14.5004 12.4712C12.7403 12.4712 11.3135 13.8973 11.3135 15.6565C11.3135 17.4157 12.7403 18.8417 14.5004 18.8417Z" fill="#E3EFFF" stroke="#2388FF"/>
<path fill-rule="evenodd" clip-rule="evenodd" d="M14.5004 27.1988C16.2605 27.1988 17.6874 25.7727 17.6874 24.0135C17.6874 22.2543 16.2605 20.8282 14.5004 20.8282C12.7403 20.8282 11.3135 22.2543 11.3135 24.0135C11.3135 25.7727 12.7403 27.1988 14.5004 27.1988Z" fill="#E3EFFF" stroke="#2388FF"/>
<path fill-rule="evenodd" clip-rule="evenodd" d="M6.38422 27.1988C8.14433 27.1988 9.57117 25.7727 9.57117 24.0136C9.57117 22.2543 8.14433 20.8282 6.38422 20.8282C4.62412 20.8282 3.19727 22.2543 3.19727 24.0136C3.19727 25.7727 4.62412 27.1988 6.38422 27.1988Z" fill="#E3EFFF" stroke="#2388FF"/>
</g>
<path fill-rule="evenodd" clip-rule="evenodd" d="M22.6156 9.82818C24.3758 9.82818 25.8026 8.40208 25.8026 6.64291C25.8026 4.88374 24.3758 3.45764 22.6156 3.45764C20.8556 3.45764 19.4287 4.88374 19.4287 6.64291C19.4287 8.40208 20.8556 9.82818 22.6156 9.82818Z" fill="#E3EFFF" stroke="#2388FF"/>
<path fill-rule="evenodd" clip-rule="evenodd" d="M22.6156 18.1852C24.3758 18.1852 25.8026 16.7592 25.8026 15C25.8026 13.2408 24.3758 11.8147 22.6156 11.8147C20.8556 11.8147 19.4287 13.2408 19.4287 15C19.4287 16.7592 20.8556 18.1852 22.6156 18.1852Z" fill="#E3EFFF" stroke="#2388FF"/>
<path fill-rule="evenodd" clip-rule="evenodd" d="M22.6156 26.5424C24.3758 26.5424 25.8026 25.1163 25.8026 23.3571C25.8026 21.5979 24.3758 20.1718 22.6156 20.1718C20.8556 20.1718 19.4287 21.5979 19.4287 23.3571C19.4287 25.1163 20.8556 26.5424 22.6156 26.5424Z" fill="#E3EFFF" stroke="#2388FF"/>
<path fill-rule="evenodd" clip-rule="evenodd" d="M14.5004 18.1852C16.2605 18.1852 17.6874 16.7592 17.6874 15C17.6874 13.2408 16.2605 11.8147 14.5004 11.8147C12.7403 11.8147 11.3135 13.2408 11.3135 15C11.3135 16.7592 12.7403 18.1852 14.5004 18.1852Z" fill="#E3EFFF" stroke="#2388FF"/>
<path fill-rule="evenodd" clip-rule="evenodd" d="M14.5004 26.5423C16.2605 26.5423 17.6874 25.1162 17.6874 23.357C17.6874 21.5979 16.2605 20.1718 14.5004 20.1718C12.7403 20.1718 11.3135 21.5979 11.3135 23.357C11.3135 25.1162 12.7403 26.5423 14.5004 26.5423Z" fill="#E3EFFF" stroke="#2388FF"/>
<path fill-rule="evenodd" clip-rule="evenodd" d="M6.38422 26.5423C8.14433 26.5423 9.57117 25.1162 9.57117 23.3571C9.57117 21.5979 8.14433 20.1718 6.38422 20.1718C4.62412 20.1718 3.19727 21.5979 3.19727 23.3571C3.19727 25.1162 4.62412 26.5423 6.38422 26.5423Z" fill="#E3EFFF" stroke="#2388FF"/>
<defs>
<filter id="filter0_f_5391_57649" x="0.697266" y="1.61411" width="27.6055" height="28.0847" filterUnits="userSpaceOnUse" color-interpolation-filters="sRGB">
<feFlood flood-opacity="0" result="BackgroundImageFix"/>
<feBlend mode="normal" in="SourceGraphic" in2="BackgroundImageFix" result="shape"/>
<feGaussianBlur stdDeviation="1" result="effect1_foregroundBlur_5391_57649"/>
</filter>
</defs>
</svg>
