<svg width="41" height="40" viewBox="0 0 41 40" fill="none" xmlns="http://www.w3.org/2000/svg">
<path d="M10.623 25.5099H13.4593V11.957H10.623C6.74163 11.957 4.64453 13.9982 4.64453 17.7401V19.7292C4.64453 23.4598 6.74163 25.5099 10.623 25.5099ZM15.4685 25.5239C19.4768 25.9765 24.433 27.1821 28.4227 29.1483C28.4177 28.9862 28.4151 28.8102 28.4151 28.6481V8.83308C28.4151 8.65311 28.4177 8.49854 28.4202 8.32108C24.464 10.2762 19.1381 11.5588 15.4685 11.957V25.5239ZM33.387 32.4745C35.1492 32.4745 36.3861 31.2262 36.3861 29.4818V7.89139C36.3861 6.13553 35.1492 4.88721 33.387 4.88721C31.6425 4.88721 30.3968 6.13553 30.3968 7.89139V29.4818C30.3968 31.2262 31.6425 32.4745 33.387 32.4745ZM16.301 35.1129C18.1013 35.1129 19.4437 33.7786 18.9495 31.5851L18.1582 27.9853C16.9071 27.7412 15.1549 27.5856 11.5776 27.5029C11.334 27.5029 10.9442 27.4801 10.5405 27.4776L12.9796 32.6302C13.7224 34.1935 14.6024 35.1129 16.301 35.1129Z" fill="#020202"/>
</svg>
