<svg width="40" height="40" viewBox="0 0 40 40" fill="none" xmlns="http://www.w3.org/2000/svg">
<path d="M11.1297 5.89185L11.1646 5.89167H28.8655C28.8181 4.64987 28.0382 3.92407 26.754 3.92407H13.2412C11.957 3.92407 11.1772 4.64987 11.1297 5.89185Z" fill="#020202"/>
<path d="M8.33329 10.1676C8.82296 10.0865 9.34194 10.0452 9.88672 10.0452H30.1085C30.451 10.0452 30.7824 10.0616 31.1032 10.0939C31.2937 10.1129 31.4799 10.1375 31.662 10.1676C31.5064 8.71568 30.5271 7.88229 28.9443 7.88229H11.0607C9.47796 7.88229 8.49023 8.71568 8.33329 10.1676Z" fill="#020202"/>
<path d="M30.1085 36.0758H9.88672C6.79799 36.0758 5.16016 34.443 5.16016 31.3873V17.0241C5.16016 13.964 6.79799 12.3356 9.88672 12.3356H30.1085C33.1931 12.3356 34.8351 13.964 34.8351 17.0241V31.3873C34.8351 34.443 33.1931 36.0758 30.1085 36.0758Z" fill="#020202"/>
</svg>
