<svg width="30" height="30" viewBox="0 0 30 30" fill="none" xmlns="http://www.w3.org/2000/svg">
<g clip-path="url(#clip0_5580_57697)">
<g opacity="0.3" filter="url(#filter0_f_5580_57697)">
<path d="M8.43609 12.3692H3.9532C2.96294 12.3692 2.16016 11.6417 2.16016 10.7442V6.6817C2.16016 5.78425 2.96294 5.0567 3.9532 5.0567H8.43609C9.42637 5.0567 10.2291 5.78425 10.2291 6.6817V10.7442C10.2291 11.6417 9.42637 12.3692 8.43609 12.3692Z" stroke="#2388FF" stroke-width="1.94997" stroke-linecap="round" stroke-linejoin="round"/>
<path d="M16.5059 5.0567H28.1606" stroke="#8DC1FF" stroke-width="1.94997" stroke-linecap="round" stroke-linejoin="round"/>
<path d="M16.5059 12.3692H28.1606" stroke="#8DC1FF" stroke-width="1.94997" stroke-linecap="round" stroke-linejoin="round"/>
<path d="M2.16016 18.8692H28.1593" stroke="#8DC1FF" stroke-width="1.94997" stroke-linecap="round" stroke-linejoin="round"/>
<path d="M2.16016 25.3692H28.1593" stroke="#8DC1FF" stroke-width="1.94997" stroke-linecap="round" stroke-linejoin="round"/>
</g>
<path d="M8.27594 12.1562H3.79304C2.80278 12.1562 2 11.4287 2 10.5312V6.46875C2 5.57129 2.80278 4.84375 3.79304 4.84375H8.27594C9.26622 4.84375 10.069 5.57129 10.069 6.46875V10.5312C10.069 11.4287 9.26622 12.1562 8.27594 12.1562Z" stroke="#2388FF" stroke-width="1.94997" stroke-linecap="round" stroke-linejoin="round"/>
<path d="M16.3457 4.84375H28.0005" stroke="#8DC1FF" stroke-width="1.94997" stroke-linecap="round" stroke-linejoin="round"/>
<path d="M16.3457 12.1562H28.0005" stroke="#8DC1FF" stroke-width="1.94997" stroke-linecap="round" stroke-linejoin="round"/>
<path d="M2 18.6562H27.9991" stroke="#8DC1FF" stroke-width="1.94997" stroke-linecap="round" stroke-linejoin="round"/>
<path d="M2 25.1562H27.9991" stroke="#8DC1FF" stroke-width="1.94997" stroke-linecap="round" stroke-linejoin="round"/>
</g>
<defs>
<filter id="filter0_f_5580_57697" x="-0.814453" y="2.08173" width="31.9492" height="26.2625" filterUnits="userSpaceOnUse" color-interpolation-filters="sRGB">
<feFlood flood-opacity="0" result="BackgroundImageFix"/>
<feBlend mode="normal" in="SourceGraphic" in2="BackgroundImageFix" result="shape"/>
<feGaussianBlur stdDeviation="1" result="effect1_foregroundBlur_5580_57697"/>
</filter>
<clipPath id="clip0_5580_57697">
<rect width="30" height="30" fill="white"/>
</clipPath>
</defs>
</svg>
