<svg width="18" height="17" viewBox="0 0 18 17" fill="none" xmlns="http://www.w3.org/2000/svg">
<g clip-path="url(#clip0_5468_58206)">
<path d="M17.25 12.2699C17.19 12.1999 17.12 12.1399 17.04 12.1099L17.02 12.0899L16.9 12.0699C15.85 11.8999 15.08 11.2699 14.56 10.6599C14.04 10.0399 13.78 9.4599 13.77 9.4299V9.4099L13.75 9.3899V9.3699C13.71 9.2999 13.69 9.2299 13.68 9.1599C13.68 9.0899 13.68 9.0299 13.7 8.9599C13.73 8.8999 13.81 8.8199 13.96 8.7399C14.12 8.6599 14.3 8.5999 14.48 8.5399C14.56 8.5099 14.66 8.4799 14.74 8.4499C15.4 8.1899 15.73 7.8399 15.72 7.4299V7.3999V7.3799C15.69 7.1999 15.61 7.0299 15.49 6.8999C15.37 6.7699 15.22 6.6799 15.05 6.6399C14.92 6.5899 14.78 6.5699 14.65 6.5699C14.51 6.5699 14.37 6.5999 14.24 6.6499C14.05 6.7499 13.83 6.8099 13.62 6.8299C13.62 6.8299 13.6 6.8299 13.59 6.8299V6.6499H13.6V6.6099C13.76 5.4699 13.69 4.3099 13.4 3.1999V3.1699L13.38 3.1399C13.01 2.3099 12.41 1.5999 11.64 1.0999C10.87 0.609897 9.98001 0.349897 9.07001 0.359897H8.75001C7.84001 0.359897 6.95001 0.609897 6.19001 1.0999C5.43001 1.5899 4.82001 2.2999 4.46001 3.1299V3.1599L4.44001 3.1899C4.14001 4.2999 4.07001 5.4599 4.23001 6.5999C4.23001 6.6699 4.23001 6.7499 4.24001 6.8199C4.22001 6.8199 4.20001 6.8199 4.18001 6.8199C3.95001 6.8099 3.72001 6.7499 3.51001 6.6399C3.40001 6.5899 3.28001 6.5699 3.16001 6.5699C2.94001 6.5699 2.73001 6.6199 2.55001 6.7399C2.37001 6.8599 2.23001 7.0399 2.15001 7.2399V7.2699L2.13001 7.2999C2.06001 7.6899 2.31001 7.9699 2.49001 8.1099C2.69001 8.2699 2.93001 8.3799 3.09001 8.4399C3.17001 8.4699 3.26001 8.4999 3.34001 8.5299C3.52001 8.5899 3.70001 8.6499 3.86001 8.7299C4.01001 8.8099 4.09001 8.8899 4.12001 8.9499C4.14001 9.0099 4.15001 9.0799 4.14001 9.1499C4.14001 9.2199 4.11001 9.2899 4.07001 9.3499V9.3699V9.3899C3.86001 9.8599 3.59001 10.2799 3.26001 10.6599V10.6699C2.68001 11.3899 1.85001 11.8799 0.940006 12.0499C0.800006 12.0699 0.680006 12.1499 0.590006 12.2599C0.500006 12.3699 0.460006 12.5099 0.470006 12.6499C0.470006 12.7299 0.490006 12.8099 0.520006 12.8799C0.590006 13.0499 0.720006 13.1799 0.860006 13.2799C1.00001 13.3799 1.17001 13.4599 1.36001 13.5399C1.72001 13.6799 2.18001 13.7899 2.74001 13.8799C2.74001 13.8899 2.74001 13.9099 2.75001 13.9299C2.76001 13.9799 2.78001 14.0399 2.79001 14.1199C2.82001 14.2399 2.84001 14.3699 2.89001 14.5099C2.93001 14.6499 3.01001 14.7799 3.13001 14.8599C3.25001 14.9499 3.40001 14.9799 3.54001 14.9699C3.67001 14.9699 3.81001 14.9399 3.94001 14.9099C4.21001 14.8499 4.49001 14.8199 4.77001 14.8199C4.96001 14.8199 5.16001 14.8399 5.35001 14.8699C5.75001 14.9699 6.12001 15.1599 6.43001 15.4299C7.11001 16.0099 7.95001 16.3399 8.84001 16.3799C8.87001 16.3799 8.90001 16.3799 8.93001 16.3799C8.96001 16.3799 9.00001 16.3799 9.05001 16.3799H9.07001C9.96001 16.3399 10.81 16.0099 11.48 15.4299C11.79 15.1699 12.16 14.9799 12.56 14.8699C12.75 14.8399 12.95 14.8199 13.14 14.8199C13.42 14.8199 13.7 14.8499 13.97 14.9099C14.11 14.9399 14.24 14.9599 14.38 14.9599C14.52 14.9599 14.66 14.9199 14.77 14.8399C14.88 14.7599 14.96 14.6399 14.99 14.4999C15.03 14.3699 15.06 14.2399 15.09 14.1099C15.11 14.0399 15.12 13.9699 15.13 13.9199C15.13 13.8999 15.13 13.8899 15.14 13.8699C15.7 13.7799 16.16 13.6599 16.52 13.5299C16.71 13.4599 16.88 13.3699 17.02 13.2699C17.16 13.1699 17.29 13.0399 17.36 12.8799C17.39 12.8099 17.41 12.7299 17.42 12.6499C17.42 12.5099 17.38 12.3699 17.3 12.2599L17.25 12.2699Z" fill="white"/>
<path d="M9.00996 16.75H8.84996H8.73996C7.76996 16.71 6.83996 16.34 6.09996 15.71C5.82996 15.48 5.50996 15.32 5.16996 15.23C5.02996 15.21 4.85996 15.19 4.67996 15.19C4.42996 15.19 4.17996 15.22 3.92996 15.28C3.77996 15.31 3.62996 15.34 3.47996 15.34C3.25996 15.37 3.01996 15.3 2.82996 15.16C2.63996 15.02 2.49996 14.82 2.44996 14.59C2.40996 14.46 2.37996 14.32 2.34996 14.2C1.85996 14.11 1.46996 14 1.13996 13.88C0.899963 13.79 0.709963 13.69 0.549963 13.58C0.329963 13.42 0.169963 13.24 0.0799634 13.03C0.0299634 12.91 -3.66067e-05 12.79 -3.66067e-05 12.67C-0.0100366 12.44 0.0599634 12.21 0.199963 12.03C0.339963 11.85 0.549963 11.73 0.769963 11.69C1.59996 11.54 2.33996 11.1 2.85996 10.44C3.17996 10.07 3.43996 9.67003 3.62996 9.25003L3.67996 9.16003C3.67996 9.16003 3.69996 9.11003 3.60996 9.07003C3.46996 9.00003 3.30996 8.95003 3.14996 8.90003C3.05996 8.87003 2.95996 8.84003 2.86996 8.80003C2.67996 8.73003 2.39996 8.60003 2.16996 8.42003C1.75996 8.10003 1.58996 7.68003 1.66996 7.25003L1.68996 7.15003C1.80996 6.84003 1.99996 6.61003 2.24996 6.44003C2.49996 6.28003 2.77996 6.20003 3.06996 6.21003C3.23996 6.18003 3.39996 6.24003 3.55996 6.31003C3.61996 6.34003 3.68996 6.37003 3.74996 6.39003C3.62996 5.30003 3.70996 4.19003 3.99996 3.11003L4.03996 3.01003C4.43996 2.10003 5.08996 1.34003 5.90996 0.810025C6.76996 0.270025 7.74996 0.0200253 8.70996 2.52969e-05H9.01996C10.05 -0.0199747 10.97 0.260025 11.8 0.790025C12.63 1.33003 13.28 2.09003 13.68 2.99003L13.72 3.10003C14 4.16003 14.09 5.25003 13.97 6.34003C13.99 6.34003 14.01 6.32003 14.03 6.31003C14.25 6.21003 14.43 6.18003 14.63 6.18003C14.81 6.18003 14.99 6.21003 15.16 6.28003C15.36 6.33003 15.57 6.46003 15.74 6.64003C15.91 6.83003 16.03 7.06003 16.06 7.32003V7.43003C16.08 7.83003 15.87 8.40003 14.85 8.80003C14.76 8.83003 14.66 8.87003 14.57 8.90003C14.42 8.95003 14.26 9.00003 14.11 9.07003C14.03 9.11003 14 9.14003 14 9.14003L14.08 9.21003C14.11 9.28003 14.35 9.83003 14.84 10.4C15.45 11.12 16.17 11.55 16.96 11.69L17.19 11.73L17.27 11.81C17.33 11.83 17.45 11.92 17.54 12.03C17.69 12.21 17.76 12.44 17.75 12.67C17.75 12.8 17.71 12.92 17.66 13.03C17.57 13.24 17.41 13.42 17.2 13.58C17.04 13.69 16.85 13.79 16.61 13.88C16.29 14 15.89 14.11 15.41 14.2C15.38 14.33 15.35 14.47 15.31 14.6C15.26 14.8 15.13 15 14.95 15.14C14.77 15.27 14.54 15.34 14.32 15.33C14.15 15.33 13.99 15.3 13.83 15.27C13.58 15.22 13.33 15.19 13.07 15.19C12.9 15.19 12.73 15.2 12.55 15.23C12.24 15.31 11.92 15.48 11.65 15.7C10.92 16.32 9.97996 16.69 9.00996 16.74V16.75ZM4.67996 14.45C4.89996 14.45 5.10996 14.47 5.31996 14.5C5.79996 14.62 6.22996 14.84 6.57996 15.14C7.18996 15.66 7.96996 15.97 8.76996 16H8.86996H8.97996C9.77996 15.96 10.56 15.66 11.17 15.14C11.53 14.84 11.95 14.62 12.4 14.51C12.64 14.47 12.86 14.45 13.07 14.45C13.38 14.45 13.69 14.49 13.98 14.55C14.09 14.58 14.21 14.59 14.32 14.59C14.4 14.59 14.45 14.58 14.49 14.55C14.53 14.52 14.56 14.47 14.58 14.42C14.62 14.28 14.65 14.16 14.67 14.04C14.69 13.96 14.7 13.89 14.72 13.83L14.78 13.6L15.03 13.51C15.57 13.42 16.01 13.31 16.33 13.19C16.5 13.12 16.64 13.05 16.75 12.98C16.86 12.9 16.93 12.83 16.96 12.74C16.98 12.7 16.98 12.67 16.99 12.63C16.99 12.58 16.98 12.54 16.95 12.5C16.95 12.5 16.91 12.46 16.88 12.44H16.83C15.87 12.27 14.99 11.74 14.26 10.89C13.68 10.21 13.41 9.56003 13.41 9.56003C13.34 9.45003 13.3 9.33003 13.29 9.20003C13.28 9.08003 13.29 8.97003 13.32 8.85003C13.41 8.65003 13.55 8.52003 13.76 8.41003C13.94 8.32003 14.14 8.25003 14.34 8.19003C14.42 8.17003 14.5 8.14003 14.57 8.11003C14.91 7.98003 15.32 7.75003 15.31 7.44003C15.29 7.34003 15.25 7.24003 15.17 7.16003C15.1 7.09003 15.01 7.03003 14.91 7.01003C14.78 6.96003 14.67 6.94003 14.6 6.95003C14.51 6.95003 14.43 6.97003 14.35 7.00003C14.11 7.12003 13.85 7.19003 13.59 7.22003H13.55L13.13 7.18003L13.16 6.65003C13.32 5.49003 13.25 4.39003 12.97 3.32003C12.63 2.55003 12.08 1.90003 11.37 1.45003C10.66 0.990025 9.82996 0.740025 9.00996 0.770025H8.68996C7.85996 0.750025 7.02996 1.00003 6.32996 1.45003C5.61996 1.90003 5.06996 2.55003 4.73996 3.32003C4.44996 4.39003 4.38996 5.49003 4.53996 6.58003L4.57996 7.18003L4.18996 7.23003H4.08996C3.79996 7.22003 3.51996 7.14003 3.26996 7.01003C3.20996 6.98003 3.18996 6.98003 3.07996 6.97003C2.91996 6.95003 2.78996 7.00003 2.66996 7.08003C2.54996 7.16003 2.45996 7.27003 2.40996 7.40003C2.37996 7.55003 2.45996 7.70003 2.63996 7.85003C2.79996 7.98003 2.99996 8.07003 3.14996 8.12003C3.21996 8.15003 3.30996 8.17003 3.37996 8.20003L3.42996 8.22003C3.60996 8.28003 3.79996 8.34003 3.95996 8.43003C4.16996 8.54003 4.30996 8.67003 4.38996 8.82003C4.44996 8.99003 4.45996 9.11003 4.43996 9.23003C4.42996 9.35003 4.37996 9.47003 4.31996 9.58003C4.08996 10.08 3.79996 10.54 3.43996 10.94C2.79996 11.73 1.89996 12.27 0.899963 12.45C0.849963 12.45 0.809963 12.48 0.779963 12.52C0.749963 12.56 0.739963 12.6 0.739963 12.65C0.739963 12.69 0.739963 12.72 0.759963 12.76C0.799963 12.84 0.869963 12.92 0.969963 13C1.07996 13.08 1.21996 13.15 1.38996 13.21C1.70996 13.33 2.14996 13.44 2.69996 13.53L2.92996 13.57L3.05996 14.06C3.07996 14.17 3.10996 14.3 3.14996 14.43C3.16996 14.5 3.19996 14.55 3.24996 14.58C3.29996 14.61 3.34996 14.63 3.40996 14.62C3.53996 14.62 3.64996 14.6 3.75996 14.57C4.05996 14.5 4.35996 14.47 4.66996 14.47L4.67996 14.45Z" fill="black"/>
</g>
<defs>
<clipPath id="clip0_5468_58206">
<rect width="17.75" height="16.75" fill="white"/>
</clipPath>
</defs>
</svg>
