<svg width="40" height="40" viewBox="0 0 40 40" fill="none" xmlns="http://www.w3.org/2000/svg">
<path d="M35.5611 33.2493C35.13 33.9128 34.3153 34.09 33.7126 33.6859C33.0541 33.2604 32.9621 32.4541 33.4169 31.7363C35.5541 28.5004 36.8837 24.4447 36.8837 20.0005C36.8837 15.5447 35.5541 11.5143 33.4169 8.26689C32.9621 7.54929 33.0541 6.74031 33.7126 6.31742C34.3153 5.91337 35.13 6.07659 35.5611 6.75409C37.9886 10.4331 39.4925 14.9839 39.4925 20.0005C39.4925 25.008 38.0234 29.5791 35.5611 33.2493Z" fill="white"/>
<path d="M28.8368 30.1307C28.5898 30.1306 28.3387 30.0585 28.1071 29.911C27.4501 29.497 27.3677 28.6781 27.8393 27.9554C29.3013 25.7665 30.1802 22.9392 30.1802 19.9928C30.1802 17.0464 29.3251 14.1937 27.8393 12.0277C27.3566 11.305 27.4501 10.4886 28.1071 10.0746C28.7335 9.67558 29.5064 9.82869 29.9403 10.4593C31.7679 13.0048 32.81 16.4616 32.81 19.9928C32.81 23.5241 31.7567 26.9579 29.9403 29.5237C29.8175 29.703 29.6682 29.8437 29.5022 29.9443C29.2985 30.0678 29.0698 30.1309 28.8368 30.1307Z" fill="white"/>
<path d="M22.5324 26.1819C23.1085 26.5631 23.8842 26.4353 24.3111 25.8234C25.4328 24.3265 26.1024 22.1975 26.1024 19.9928C26.1024 17.788 25.4328 15.6704 24.3111 14.1571C23.8842 13.5503 23.1085 13.4085 22.5324 13.8036C21.853 14.2496 21.7316 15.07 22.2617 15.8504C23.0332 16.9464 23.4713 18.4373 23.4713 19.9928C23.4713 21.5483 23.022 23.0252 22.2617 24.1352C21.7427 24.9244 21.853 25.7245 22.5324 26.1819Z" fill="white"/>
<path d="M17.5645 30.6989C17.5645 31.7286 16.8083 32.4848 15.7662 32.4848C15.0449 32.4848 14.4618 32.1996 13.7726 31.5356L7.9216 26.0175C7.84068 25.9387 7.72768 25.9045 7.60073 25.9045H3.65262C1.60742 25.9045 0.503906 24.7741 0.503906 22.6081V17.4284C0.503906 15.2739 1.60742 14.1346 3.65262 14.1346H7.60352C7.66769 14.1346 7.72768 14.124 7.78209 14.1032C7.8365 14.083 7.88393 14.053 7.92439 14.0141L13.7726 8.54922C14.5259 7.82046 15.0324 7.52888 15.7439 7.52888C16.8083 7.52888 17.5645 8.35617 17.5645 9.3861V30.6989Z" fill="white"/>
</svg>
