<?xml version="1.0" encoding="UTF-8"?>
<svg id="Layer_1" data-name="Layer 1" xmlns="http://www.w3.org/2000/svg" viewBox="0 0 1080 1080">
  <defs>
    <style>
      .cls-1 {
        fill: #4b70f5;
        stroke-width: 0px;
      }
    </style>
  </defs>
  <path class="cls-1" d="m523.65,297.06c8.03,14.12,5.62,34.18,7.82,51.87h15.21c2.37-18.17.04-38.34,8.21-52.42,8.19-14.12,26.84-22.18,41.73-33.53-2.41-4.14-5.48-9.41-7.39-12.69-18.1,7.27-34.54,19.09-50.88,18.96-16.23-.13-32.36-12.3-49.18-19.46-2.44,4.22-5.19,8.99-7.39,12.8,15.32,11.98,33.79,20.27,41.87,34.48Z"/>
  <path class="cls-1" d="m691.12,744.97c-13.94-.14-24.32-6.37-31.27-18.5-5.7-9.94-11.59-19.77-17.65-30.08-6.04,3.63-11.06,6.65-18.3,11,31.53,31.77,30.28,64.05.4,95.75,7.47,4.27,12.52,7.16,16.58,9.48,11.17-14.85,19.12-33.57,33.2-41.83,14.05-8.24,34.26-6,52.47-8.45v-17.34c-12.42,0-23.92.09-35.42-.02Z"/>
  <path class="cls-1" d="m707.65,624.35c-3.08,5.12-6.21,10.33-8.66,14.4,14.94,11.36,33.63,19.4,41.8,33.53,8.16,14.1,5.79,34.29,8.07,52.16h15.02c2.54-18.46.37-38.64,8.63-52.7,8.26-14.06,26.94-22.01,41.59-33.05-2.6-4.36-5.6-9.4-8.59-14.41-58.23,33.28-47.76,26.3-97.88.08Z"/>
  <path class="cls-1" d="m322.32,431.69c16.23.07,32.42,12.16,49.24,19.24,2.55-4.51,5.39-9.54,8.49-15.01-10.24-5.94-19.41-11.52-28.82-16.64-13.57-7.39-20.28-18.46-19.87-34.01.29-10.99.06-22,.06-32.87h-17.4c-2.62,18.69-.53,38.86-8.8,52.94-8.21,13.99-26.85,21.85-41.33,32.72,2.61,4.41,5.4,9.14,7.55,12.78,18.13-7.35,34.54-19.22,50.89-19.15Z"/>
  <path class="cls-1" d="m523.3,424.55c8.12,14.24,5.92,34.35,8.39,53h15.07c2.29-18.22-.15-38.43,8-52.53,8.17-14.13,26.91-22.16,41.96-33.57-2.53-4.07-5.77-9.27-7.86-12.62-17.93,7.24-34.38,19.16-50.71,18.99-16.21-.16-32.3-12.48-48.92-19.67-2.66,4.72-5.48,9.74-7.48,13.28,15.2,11.49,33.66,19.29,41.55,33.12Z"/>
  <path class="cls-1" d="m297.7,555.41c14.07-8.14,34.22-5.79,52.3-8.12v-15.13c-19.13-2.5-39.31-.2-53.4-8.37-14.06-8.16-22.03-26.81-33.11-41.45-4.45,2.67-9.39,5.64-12.88,7.72,7.42,17.75,19.55,34.07,19.57,50.39.02,16.26-12.1,32.54-19.23,49.58,4.36,2.46,9.39,5.31,12.97,7.34,11.58-15.16,19.65-33.79,33.78-41.97Z"/>
  <path class="cls-1" d="m811.68,555.9c-7.1-12.5-6.92-24.91.45-37.31,5.65-9.51,11.05-19.16,17.05-29.59-5.82-3.39-10.8-6.28-14.84-8.63-11.4,14.96-19.42,33.5-33.48,41.71-14.05,8.2-34.14,6.05-52.38,8.55v14.59c18.51,2.53,38.6.38,52.67,8.58,14.06,8.19,22.08,26.74,33.32,41.5,4.16-2.43,9.13-5.33,14.92-8.71-6.27-10.86-12.05-20.74-17.71-30.69Z"/>
  <path class="cls-1" d="m480.63,558.12c-31.84,31.39-63.73,30.67-95.22.21-4.48,7.6-7.56,12.84-9.67,16.41,15.34,11.88,33.94,20.09,42.03,34.29,8.02,14.09,5.45,34.21,7.55,51.95h15.09c2.46-18.34.15-38.6,8.44-52.58,8.49-14.33,27.36-22.51,41.93-33.57-2.7-4.45-5.57-9.17-10.15-16.71Z"/>
  <path class="cls-1" d="m637.48,660.65h14.89c2.63-18.75.53-38.93,8.82-52.98,8.25-13.98,26.94-21.8,41.5-32.66-2.65-4.44-5.47-9.16-7.67-12.86-18.04,7.36-34.44,19.35-50.75,19.22-16.23-.13-32.37-12.42-49.21-19.67-2.57,4.5-5.42,9.5-7.4,12.96,15.31,11.92,33.79,20.18,41.9,34.35,8.06,14.09,5.71,34.14,7.92,51.62Z"/>
  <path class="cls-1" d="m434.71,380.5c7.5-4.4,12.5-7.34,16.25-9.54-7.23-17.34-19.31-33.62-19.32-49.91-.01-16.25,12.08-32.5,19.37-49.94-4-2.3-9.02-5.19-13.06-7.51-11.21,14.83-19.14,33.6-33.22,41.66-14.41,8.25-34.84,6.01-53.06,8.42v14.9c-.21,1.33-.43,2.66-.64,3.99,43.57-10.61,71.24,6.12,83.68,47.93Z"/>
  <path class="cls-1" d="m639.93,378.45c11.52-15.02,19.64-33.6,33.78-41.76,14.09-8.13,34.22-5.82,52.03-8.13v-14.86c-18.57-2.58-38.72-.47-52.77-8.72-14-8.23-21.89-26.86-32.86-41.46-4.17,2.37-8.95,5.08-13.05,7.4,7.35,17.84,19.36,34.19,19.3,50.48-.07,16.28-12.22,32.51-19.46,49.67,4.11,2.32,9.15,5.18,13.03,7.37Z"/>
  <path class="cls-1" d="m708.69,454.01c31.9-31.96,64.1-29.85,95.67-.32,4.28-7.51,7.14-12.52,9.38-16.44-15-11.4-33.63-19.42-41.81-33.51-8.17-14.07-5.86-34.21-8.25-52.46h-15.2c-2.25,18.05.28,38.29-7.91,52.27-8.42,14.39-27.28,22.68-41.95,33.93,2.61,4.29,5.64,9.26,10.07,16.54Z"/>
  <path class="cls-1" d="m455.21,708.49c-3.28-2.42-4.48-3.47-5.82-4.26-3.42-2-6.91-3.89-9.94-5.59-11.41,15.14-19.36,33.84-33.44,42.07-14.05,8.22-34.23,5.95-52.05,8.33v14.96c18.45,2.41,38.6.12,52.74,8.26,14.11,8.13,22.21,26.71,33.45,41.36,4.26-2.49,9.25-5.4,16.59-9.69-31.47-31.89-30.47-64.22-1.52-95.45Z"/>
  <path class="cls-1" d="m555.7,779.11c-8.11-14.09-5.88-34.12-8.17-51.45h-14.85c-2.41,18.33-.13,38.42-8.27,52.5-8.16,14.13-26.69,22.27-41.46,33.63,2.36,4.01,5.3,9.01,9.66,16.41,31.7-30.79,63.96-30.94,95.9-.37,4.14-7.52,7.07-12.82,9.08-16.47-15.31-11.89-33.75-20.12-41.9-34.26Z"/>
  <path class="cls-1" d="m372.42,627.32c-17.13,7.26-33.39,19.55-49.65,19.55-16.63,0-33.25-12.05-50.4-19.03-2.51,4.62-5.26,9.67-7.07,13.01,15.3,11.73,33.89,19.84,42.03,33.96,8.11,14.06,5.73,34.17,7.97,51.74h15.03c2.36-18.28.05-38.37,8.14-52.5,8.12-14.16,26.62-22.38,41.5-33.93-2.25-3.82-5.21-8.85-7.55-12.81Z"/>
  <path class="cls-1" d="m494.04,540c0,25.34,20.62,45.96,45.96,45.96s45.96-20.62,45.96-45.96-20.62-45.96-45.96-45.96-45.96,20.62-45.96,45.96Zm70.39,0c0,13.47-10.96,24.43-24.43,24.43s-24.43-10.96-24.43-24.43,10.96-24.43,24.43-24.43,24.43,10.96,24.43,24.43Z"/>
</svg>