<svg width="40" height="40" viewBox="0 0 40 40" fill="none" xmlns="http://www.w3.org/2000/svg">
<g clip-path="url(#clip0_7329_30424)">
<path d="M12.9024 27.0593C17.8321 31.9951 23.8004 35.7862 28.6755 35.7862C30.8634 35.7862 32.7839 35.0255 34.3251 33.325C35.2255 32.3245 35.7646 31.1718 35.7646 30.0239C35.7646 29.1377 35.4232 28.2847 34.5869 27.6778L29.447 24.0273C28.6514 23.4687 27.9713 23.2015 27.3609 23.2015C26.5883 23.2015 25.8943 23.6447 25.114 24.4084L23.91 25.6018C23.7261 25.7855 23.4863 25.869 23.2693 25.869C23.0127 25.869 22.753 25.7688 22.583 25.6762C21.5323 25.107 19.7316 23.5599 18.0599 21.9019C16.4019 20.2439 14.8548 18.4432 14.2992 17.3925C14.2067 17.2088 14.1064 16.9629 14.1064 16.7093C14.1064 16.4892 14.1763 16.263 14.36 16.0793L15.567 14.8479C16.317 14.0675 16.774 13.3873 16.774 12.6009C16.774 11.9905 16.5038 11.324 15.9208 10.5149L12.3115 5.42956C11.7074 4.57968 10.8241 4.21387 9.88306 4.21387C8.75654 4.21387 7.61767 4.70897 6.62313 5.6641C4.96377 7.2356 4.23047 9.18359 4.23047 11.3411C4.23047 16.2162 7.96678 22.1434 12.9024 27.0593Z" fill="#020202"/>
</g>
<defs>
<clipPath id="clip0_7329_30424">
<rect width="40" height="40" fill="white"/>
</clipPath>
</defs>
</svg>
