<svg width="256" height="256" viewBox="0 0 256 256" fill="none" xmlns="http://www.w3.org/2000/svg">
<rect width="256" height="256" fill="#020202"/>
<path fill-rule="evenodd" clip-rule="evenodd" d="M142.365 80.7957H113.635C100.188 80.7957 89.2869 91.6965 89.2869 105.143V150.857C89.2869 164.303 100.188 175.204 113.635 175.204H142.365C155.812 175.204 166.713 164.303 166.713 150.857V105.143C166.713 91.6965 155.812 80.7957 142.365 80.7957ZM113.635 54.5C85.6651 54.5 62.9912 77.1739 62.9912 105.143V150.857C62.9912 178.826 85.6651 201.5 113.635 201.5H142.365C170.335 201.5 193.009 178.826 193.009 150.857V105.143C193.009 77.1739 170.335 54.5 142.365 54.5H113.635Z" fill="white"/>
</svg>
