<svg width="40" height="40" viewBox="0 0 40 40" fill="none" xmlns="http://www.w3.org/2000/svg">
<path d="M8.11623 29.7529H28.4677C30.8289 29.7529 32.6832 29.4769 34.0159 28.0439C35.351 26.6084 35.5947 24.6475 35.5947 22.1011V17.8988C35.5947 15.3525 35.351 13.3866 34.0159 11.9561C32.6808 10.523 30.8289 10.2471 28.4677 10.2471H8.09496C5.76579 10.2471 3.91147 10.523 2.57639 11.9561C1.24366 13.3891 1 15.364 1 17.8645V22.1011C1 24.6475 1.24366 26.6134 2.57639 28.0439C3.9138 29.4769 5.76579 29.7529 8.11623 29.7529ZM37.4806 23.7833C38.5546 23.7111 40 22.2292 40 19.9943C40 17.7683 38.5546 16.2889 37.4806 16.2167V23.7833Z" fill="white"/>
</svg>
