<svg width="17" height="17" viewBox="0 0 17 17" fill="none" xmlns="http://www.w3.org/2000/svg">
<path d="M2.76074 7.58398V8.67492C2.76074 9.2272 2.31302 9.67492 1.76074 9.67492C1.20846 9.67492 0.760742 9.2272 0.760742 8.67492V7.58398C0.760742 7.0317 1.20846 6.58398 1.76074 6.58398C2.31302 6.58398 2.76074 7.0317 2.76074 7.58398Z" fill="#0066D9"/>
<path d="M14.7611 7.61242C14.7609 7.60295 14.7607 7.59346 14.7607 7.58398C14.7607 7.0317 15.2085 6.58398 15.7607 6.58398C16.313 6.58398 16.7607 7.0317 16.7607 7.58398C16.7607 7.59348 16.7606 7.60298 16.7603 7.61242H16.7607V8.70333H16.7603C16.7453 9.24245 16.3035 9.67489 15.7607 9.67489C15.218 9.67489 14.7762 9.24245 14.7611 8.70333H14.7607V7.61239H14.7611V7.61242Z" fill="#2388FF"/>
<path d="M6.21521 10.8567V11.9477C6.21521 12.4999 5.76752 12.9477 5.21521 12.9477C4.6629 12.9477 4.21521 12.4999 4.21521 11.9477V10.8567C4.21521 10.3045 4.66293 9.85672 5.21521 9.85672C5.76749 9.85672 6.21521 10.3045 6.21521 10.8567V10.8567ZM6.21521 4.31128V7.87947H6.21496C6.2029 8.42125 5.7599 8.85675 5.21521 8.85675C4.67052 8.85675 4.22755 8.42125 4.21549 7.87947H4.21521V4.31128C4.21521 3.759 4.66293 3.31128 5.21521 3.31128C5.76749 3.31128 6.21521 3.759 6.21521 4.31128V4.31128Z" fill="#EA4335"/>
<path d="M11.3063 5.40219C11.3063 5.95447 11.754 6.40219 12.3063 6.40219C12.8586 6.40219 13.3063 5.95447 13.3063 5.40219V4.31128C13.3063 3.759 12.8586 3.31128 12.3063 3.31128C11.754 3.31128 11.3063 3.759 11.3063 4.31128V5.40219Z" fill="#34A853"/>
<path d="M7.76074 2.22045C7.76074 2.7727 8.20846 3.22045 8.76074 3.22045C9.31302 3.22045 9.76074 2.7727 9.76074 2.22045V1.12952C9.76074 0.577235 9.31302 0.129517 8.76074 0.129517C8.20846 0.129517 7.76074 0.577235 7.76074 1.12952V2.22045ZM7.76074 14.0386C7.76074 13.4863 8.20846 13.0386 8.76074 13.0386C9.31302 13.0386 9.76074 13.4863 9.76074 14.0386V15.1295C9.76074 15.6818 9.31302 16.1295 8.76074 16.1295C8.20846 16.1295 7.76074 15.6818 7.76074 15.1295V14.0386Z" fill="#FAB908"/>
<path d="M11.3063 8.40222C11.3063 7.84994 11.754 7.40222 12.3063 7.40222C12.8586 7.40222 13.3063 7.84994 13.3063 8.40222V11.9477C13.3063 12.5 12.8586 12.9477 12.3063 12.9477C11.754 12.9477 11.3063 12.5 11.3063 11.9477V8.40222Z" fill="#34A853"/>
<path d="M9.76074 5.22046V11.0386C9.76074 11.5909 9.31302 12.0386 8.76074 12.0386C8.20846 12.0386 7.76074 11.5909 7.76074 11.0386V5.22046C7.76074 4.66815 8.20846 4.22046 8.76074 4.22046C9.31302 4.22046 9.76074 4.66815 9.76074 5.22046Z" fill="#FAB908"/>
</svg>
