<svg width="24" height="20" viewBox="0 0 24 20" fill="none" xmlns="http://www.w3.org/2000/svg">
<g clip-path="url(#clip0_5574_60450)">
<g filter="url(#filter0_d_5574_60450)">
<path d="M16.7464 2.65029L17.252 3.12125C18.238 4.03971 18.3187 5.57438 17.4344 6.59116L11.9931 12.8478C11.0699 13.9094 9.45289 14.0004 8.41636 13.0492L7.05788 11.8026C5.95918 10.7943 5.98184 9.05457 7.10643 8.07527L13.4006 2.59426C14.3658 1.75378 15.8099 1.77796 16.7464 2.65029Z" fill="#E3EFFF" stroke="#8DC1FF"/>
<path d="M5.91395 17.7093H2.74194C2.4658 17.7093 2.24194 17.4854 2.24194 17.2093V14.0373C2.24194 12.0093 3.88596 10.3653 5.91395 10.3653C7.94194 10.3653 9.58596 12.0093 9.58596 14.0373C9.58596 16.0653 7.94194 17.7093 5.91395 17.7093Z" fill="white" stroke="#2388FF"/>
<path d="M4.7415 15.275L2.65222 17.3642Z" fill="#E3EFFF"/>
<path d="M4.7415 15.275L2.65222 17.3642" stroke="#2388FF" stroke-linecap="round" stroke-linejoin="round"/>
</g>
</g>
<defs>
<filter id="filter0_d_5574_60450" x="-0.258057" y="0.479614" width="20.806" height="20.7297" filterUnits="userSpaceOnUse" color-interpolation-filters="sRGB">
<feFlood flood-opacity="0" result="BackgroundImageFix"/>
<feColorMatrix in="SourceAlpha" type="matrix" values="0 0 0 0 0 0 0 0 0 0 0 0 0 0 0 0 0 0 127 0" result="hardAlpha"/>
<feOffset dy="1"/>
<feGaussianBlur stdDeviation="1"/>
<feComposite in2="hardAlpha" operator="out"/>
<feColorMatrix type="matrix" values="0 0 0 0 0.1375 0 0 0 0 0.53425 0 0 0 0 1 0 0 0 0.15 0"/>
<feBlend mode="normal" in2="BackgroundImageFix" result="effect1_dropShadow_5574_60450"/>
<feBlend mode="normal" in="SourceGraphic" in2="effect1_dropShadow_5574_60450" result="shape"/>
</filter>
<clipPath id="clip0_5574_60450">
<rect width="24" height="20" fill="white"/>
</clipPath>
</defs>
</svg>
