<svg width="34" height="30" viewBox="0 0 34 30" fill="none" xmlns="http://www.w3.org/2000/svg">
<g opacity="0.5" filter="url(#filter0_f_5504_56923)">
<path d="M10.9728 7.90479H7.17853C6.97948 7.90479 6.77979 7.91517 6.58819 7.96913C5.70416 8.21808 4.36182 9.05731 4.36182 10.9748C4.36182 13.1189 4.36182 18.2081 4.36182 20.4847C4.46972 21.3636 5.12432 23.1214 6.87951 23.1214C8.63471 23.1214 10.3397 23.1214 10.9728 23.1214" stroke="#2388FF" stroke-width="1.52941" stroke-linecap="round"/>
<path d="M23.7508 7.90479H27.5451C27.7442 7.90479 27.9438 7.91517 28.1354 7.96913C29.0195 8.21808 30.3618 9.05731 30.3618 10.9748C30.3618 13.1189 30.3618 18.2081 30.3618 20.4847C30.2539 21.3636 29.5993 23.1214 27.8441 23.1214C26.0889 23.1214 24.3839 23.1214 23.7508 23.1214" stroke="#2388FF" stroke-width="1.52941" stroke-linecap="round"/>
<line x1="14.4991" y1="5.25122" x2="20.1003" y2="5.25122" stroke="#8DC1FF" stroke-width="1.52941" stroke-linecap="round" stroke-linejoin="round"/>
<line x1="14.4991" y1="25.9633" x2="20.1003" y2="25.9633" stroke="#8DC1FF" stroke-width="1.52941" stroke-linecap="round" stroke-linejoin="round"/>
<line x1="17.4135" y1="25.9633" x2="17.4135" y2="5.06273" stroke="#8DC1FF" stroke-width="1.52941" stroke-linecap="round" stroke-linejoin="round"/>
</g>
<path d="M10.611 7.39172H6.81672C6.61766 7.39172 6.41798 7.40211 6.22638 7.45607C5.34235 7.70501 4 8.54425 4 10.4617C4 12.6058 4 17.695 4 19.9716C4.1079 20.8505 4.7625 22.6083 6.5177 22.6083C8.27289 22.6083 9.97789 22.6083 10.611 22.6083" stroke="#2388FF" stroke-width="1.52941" stroke-linecap="round"/>
<path d="M23.389 7.39172H27.1833C27.3823 7.39172 27.582 7.40211 27.7736 7.45607C28.6577 7.70501 30 8.54425 30 10.4617C30 12.6058 30 17.695 30 19.9716C29.8921 20.8505 29.2375 22.6083 27.4823 22.6083C25.7271 22.6083 24.0221 22.6083 23.389 22.6083" stroke="#2388FF" stroke-width="1.52941" stroke-linecap="round"/>
<line x1="14.1373" y1="4.73816" x2="19.7385" y2="4.73816" stroke="#8DC1FF" stroke-width="1.52941" stroke-linecap="round" stroke-linejoin="round"/>
<line x1="14.1373" y1="25.4503" x2="19.7385" y2="25.4503" stroke="#8DC1FF" stroke-width="1.52941" stroke-linecap="round" stroke-linejoin="round"/>
<line x1="17.0517" y1="25.4503" x2="17.0517" y2="4.54967" stroke="#8DC1FF" stroke-width="1.52941" stroke-linecap="round" stroke-linejoin="round"/>
<defs>
<filter id="filter0_f_5504_56923" x="1.59717" y="2.29803" width="31.5293" height="26.43" filterUnits="userSpaceOnUse" color-interpolation-filters="sRGB">
<feFlood flood-opacity="0" result="BackgroundImageFix"/>
<feBlend mode="normal" in="SourceGraphic" in2="BackgroundImageFix" result="shape"/>
<feGaussianBlur stdDeviation="1" result="effect1_foregroundBlur_5504_56923"/>
</filter>
</defs>
</svg>
