<svg width="100" height="100" viewBox="0 0 100 100" fill="none" xmlns="http://www.w3.org/2000/svg">
<g clip-path="url(#clip0_7337_31234)">
<path fill-rule="evenodd" clip-rule="evenodd" d="M59.2346 19.6543H40.765C32.1206 19.6543 25.1128 26.6621 25.1128 35.3065V64.6935C25.1128 73.3379 32.1206 80.3457 40.765 80.3457H59.2346C67.879 80.3457 74.8868 73.3379 74.8868 64.6935V35.3065C74.8868 26.6621 67.879 19.6543 59.2346 19.6543ZM40.765 2.75C22.7845 2.75 8.2085 17.3261 8.2085 35.3065V64.6935C8.2085 82.674 22.7845 97.25 40.765 97.25H59.2346C77.2151 97.25 91.7911 82.6739 91.7911 64.6935V35.3065C91.7911 17.3261 77.2151 2.75 59.2346 2.75H40.765Z" fill="#020202"/>
</g>
<defs>
<clipPath id="clip0_7337_31234">
<rect width="100" height="100" fill="white"/>
</clipPath>
</defs>
</svg>
