<svg width="772" height="295" viewBox="0 0 772 295" fill="none" xmlns="http://www.w3.org/2000/svg">
<path d="M150.453 292L150.053 226H15.2531V182L136.053 3.59999H209.253V178H246.853L246.453 226H209.253V292H150.453ZM73.6531 178H150.453V66.4L73.6531 178ZM387.297 294.8C318.897 294.8 278.097 238.4 278.097 146.8C278.097 52.4 322.097 -7.62939e-06 388.497 -7.62939e-06C456.497 -7.62939e-06 496.897 56.4 496.897 147.6C496.897 242.8 452.897 294.8 387.297 294.8ZM387.697 245.2C417.297 245.2 438.497 223.2 438.497 147.2C438.497 71.2 417.297 49.6 387.697 49.6C357.697 49.6 336.897 71.2 336.897 147.2C336.897 223.2 357.697 245.2 387.697 245.2ZM659.438 292L659.038 226H524.238V182L645.038 3.59999H718.238V178H755.838L755.438 226H718.238V292H659.438ZM582.638 178H659.438V66.4L582.638 178Z" fill="#D3D3D3"/>
</svg>
