<svg width="40" height="40" viewBox="0 0 40 40" fill="none" xmlns="http://www.w3.org/2000/svg">
<path d="M19.3288 13.4299C19.3288 16.9253 16.824 19.6289 13.8566 19.6289C10.8912 19.6289 8.38643 16.9253 8.38643 13.4553C8.38643 10.0475 10.9068 7.38843 13.8566 7.38843C16.8056 7.38843 19.3288 10.0018 19.3288 13.4299Z" fill="white"/>
<path d="M22.3145 32.6078H5.38988C3.1652 32.6078 2.39062 31.9148 2.39062 30.6317C2.39062 27.0424 6.81829 22.1059 13.8451 22.1059C20.8854 22.1059 25.311 27.0424 25.311 30.6317C25.311 31.9148 24.5364 32.6078 22.3145 32.6078Z" fill="white"/>
<path d="M34.6432 33.2493C34.2121 33.9128 33.3974 34.09 32.7947 33.6859C32.1363 33.2604 32.0442 32.4541 32.499 31.7363C34.6363 28.5004 35.9658 24.4447 35.9658 20.0005C35.9658 15.5447 34.6363 11.5143 32.499 8.26689C32.0442 7.54929 32.1363 6.74031 32.7947 6.31742C33.3974 5.91337 34.2121 6.07659 34.6432 6.75409C37.0707 10.4331 38.5746 14.9839 38.5746 20.0005C38.5746 25.008 37.1056 29.5791 34.6432 33.2493Z" fill="white"/>
<path d="M27.9189 30.1307C27.672 30.1306 27.4209 30.0585 27.1893 29.911C26.5322 29.497 26.4499 28.6781 26.9214 27.9554C28.3835 25.7665 29.2624 22.9392 29.2624 19.9928C29.2624 17.0464 28.4072 14.1937 26.9214 12.0277C26.4387 11.305 26.5322 10.4886 27.1893 10.0746C27.8157 9.67558 28.5885 9.82869 29.0224 10.4593C30.85 13.0048 31.8921 16.4616 31.8921 19.9928C31.8921 23.5241 30.8388 26.9579 29.0224 29.5237C28.8996 29.703 28.7504 29.8437 28.5844 29.9443C28.3807 30.0678 28.1519 30.1309 27.9189 30.1307Z" fill="white"/>
</svg>
