<svg width="24" height="20" viewBox="0 0 24 20" fill="none" xmlns="http://www.w3.org/2000/svg">
<g clip-path="url(#clip0_5574_60403)">
<g filter="url(#filter0_d_5574_60403)">
<circle cx="10.3855" cy="10" r="8.14355" fill="white" stroke="#2388FF"/>
<path d="M10.4048 2.35511C11.4087 2.35511 12.4028 2.55285 13.3303 2.93705C14.2579 3.32124 15.1006 3.88436 15.8105 4.59425C16.5204 5.30414 17.0835 6.14691 17.4677 7.07443C17.8519 8.00195 18.0497 8.99606 18.0497 10C18.0497 11.0039 17.8519 11.9981 17.4677 12.9256C17.0835 13.8531 16.5204 14.6959 15.8105 15.4058C15.1006 16.1156 14.2579 16.6788 13.3303 17.063C12.4028 17.4471 11.4087 17.6449 10.4048 17.6449L10.4048 10L10.4048 2.35511Z" fill="#E3EFFF"/>
</g>
</g>
<defs>
<filter id="filter0_d_5574_60403" x="-0.258057" y="0.356445" width="21.2871" height="21.2871" filterUnits="userSpaceOnUse" color-interpolation-filters="sRGB">
<feFlood flood-opacity="0" result="BackgroundImageFix"/>
<feColorMatrix in="SourceAlpha" type="matrix" values="0 0 0 0 0 0 0 0 0 0 0 0 0 0 0 0 0 0 127 0" result="hardAlpha"/>
<feOffset dy="1"/>
<feGaussianBlur stdDeviation="1"/>
<feComposite in2="hardAlpha" operator="out"/>
<feColorMatrix type="matrix" values="0 0 0 0 0.1375 0 0 0 0 0.53425 0 0 0 0 1 0 0 0 0.15 0"/>
<feBlend mode="normal" in2="BackgroundImageFix" result="effect1_dropShadow_5574_60403"/>
<feBlend mode="normal" in="SourceGraphic" in2="effect1_dropShadow_5574_60403" result="shape"/>
</filter>
<clipPath id="clip0_5574_60403">
<rect width="24" height="20" fill="white"/>
</clipPath>
</defs>
</svg>
