<?xml version="1.0" encoding="UTF-8"?>
<svg id="Layer_1" data-name="Layer 1" xmlns="http://www.w3.org/2000/svg" viewBox="0 0 1080 1080">
  <defs>
    <style>
      .cls-1 {
        fill: #4b70f5;
      }

      .cls-1, .cls-2 {
        stroke-width: 0px;
      }
    </style>
  </defs>
  <g>
    <path class="cls-1" d="m306.67,576.18c-3.99-1.71-7.15-4.16-9.47-7.37-2.32-3.21-3.52-6.99-3.58-11.36h15.35c.2,2.94,1.24,5.26,3.12,6.96,1.88,1.71,4.45,2.56,7.73,2.56s5.97-.8,7.88-2.4c1.91-1.6,2.87-3.7,2.87-6.3,0-2.11-.65-3.85-1.94-5.22-1.3-1.37-2.92-2.44-4.86-3.23-1.94-.78-4.62-1.65-8.04-2.61-4.64-1.36-8.41-2.71-11.31-4.04-2.9-1.33-5.39-3.34-7.47-6.04-2.08-2.7-3.12-6.3-3.12-10.8,0-4.23,1.06-7.92,3.17-11.06,2.11-3.14,5.08-5.54,8.9-7.22,3.82-1.67,8.19-2.51,13.1-2.51,7.37,0,13.36,1.79,17.96,5.37,4.61,3.58,7.15,8.58,7.63,15h-15.76c-.14-2.46-1.18-4.49-3.12-6.09-1.94-1.6-4.52-2.41-7.73-2.41-2.8,0-5.03.72-6.7,2.15-1.67,1.43-2.51,3.51-2.51,6.24,0,1.91.63,3.5,1.89,4.76,1.26,1.26,2.83,2.29,4.71,3.07,1.88.79,4.52,1.69,7.93,2.71,4.64,1.37,8.43,2.73,11.36,4.09,2.93,1.37,5.46,3.41,7.57,6.14,2.11,2.73,3.17,6.31,3.17,10.75,0,3.82-.99,7.37-2.97,10.65-1.98,3.28-4.88,5.89-8.7,7.83-3.82,1.95-8.36,2.92-13.61,2.92-4.98,0-9.47-.85-13.46-2.56Z"/>
    <path class="cls-1" d="m399.76,553.97h-41.46c.34,4.09,1.77,7.3,4.3,9.62,2.52,2.32,5.63,3.48,9.32,3.48,5.32,0,9.11-2.29,11.36-6.86h15.46c-1.64,5.46-4.78,9.95-9.42,13.46-4.64,3.51-10.34,5.27-17.09,5.27-5.46,0-10.36-1.21-14.69-3.63-4.33-2.42-7.71-5.85-10.13-10.29-2.42-4.43-3.63-9.55-3.63-15.35s1.19-11.02,3.58-15.46c2.39-4.43,5.73-7.85,10.03-10.24,4.3-2.39,9.25-3.58,14.84-3.58s10.22,1.16,14.48,3.48c4.26,2.32,7.57,5.61,9.93,9.88,2.35,4.27,3.53,9.16,3.53,14.69,0,2.05-.14,3.89-.41,5.53Zm-14.43-9.62c-.07-3.69-1.4-6.64-3.99-8.85-2.59-2.22-5.77-3.33-9.52-3.33-3.55,0-6.53,1.07-8.96,3.22-2.42,2.15-3.91,5.14-4.45,8.96h26.92Z"/>
    <path class="cls-1" d="m400.17,534.27c2.39-4.4,5.7-7.81,9.93-10.24,4.23-2.42,9.07-3.63,14.53-3.63,7.03,0,12.85,1.76,17.45,5.27,4.61,3.52,7.69,8.44,9.26,14.79h-15.46c-.82-2.46-2.2-4.38-4.15-5.78-1.94-1.4-4.35-2.1-7.22-2.1-4.09,0-7.34,1.48-9.72,4.45-2.39,2.97-3.58,7.18-3.58,12.64s1.19,9.57,3.58,12.54c2.39,2.97,5.63,4.45,9.72,4.45,5.8,0,9.59-2.59,11.36-7.78h15.46c-1.57,6.14-4.68,11.02-9.32,14.64-4.64,3.62-10.44,5.43-17.4,5.43-5.46,0-10.31-1.21-14.53-3.63-4.23-2.42-7.54-5.83-9.93-10.24-2.39-4.4-3.58-9.53-3.58-15.4s1.19-11,3.58-15.41Z"/>
    <path class="cls-1" d="m507.75,521.32v56.71h-14.43v-7.17c-1.84,2.46-4.25,4.39-7.22,5.78-2.97,1.4-6.19,2.1-9.67,2.1-4.44,0-8.36-.94-11.77-2.82-3.41-1.88-6.09-4.64-8.04-8.29-1.94-3.65-2.92-8-2.92-13.05v-33.27h14.33v31.22c0,4.5,1.13,7.97,3.38,10.39,2.25,2.42,5.32,3.63,9.21,3.63s7.06-1.21,9.31-3.63c2.25-2.42,3.38-5.89,3.38-10.39v-31.22h14.43Z"/>
    <path class="cls-1" d="m535.74,523.06c2.97-1.71,6.36-2.56,10.18-2.56v15.05h-3.79c-4.5,0-7.9,1.06-10.18,3.17-2.29,2.12-3.43,5.8-3.43,11.06v28.25h-14.33v-56.71h14.33v8.8c1.84-3,4.25-5.36,7.22-7.06Z"/>
    <path class="cls-1" d="m600.18,553.97h-41.46c.34,4.09,1.77,7.3,4.3,9.62,2.52,2.32,5.63,3.48,9.32,3.48,5.32,0,9.11-2.29,11.36-6.86h15.46c-1.64,5.46-4.78,9.95-9.42,13.46-4.64,3.51-10.34,5.27-17.09,5.27-5.46,0-10.36-1.21-14.69-3.63-4.33-2.42-7.71-5.85-10.13-10.29-2.42-4.43-3.63-9.55-3.63-15.35s1.19-11.02,3.58-15.46c2.39-4.43,5.73-7.85,10.03-10.24,4.3-2.39,9.25-3.58,14.84-3.58s10.22,1.16,14.48,3.48c4.26,2.32,7.57,5.61,9.93,9.88,2.35,4.27,3.53,9.16,3.53,14.69,0,2.05-.14,3.89-.41,5.53Zm-14.43-9.62c-.07-3.69-1.4-6.64-3.99-8.85-2.59-2.22-5.77-3.33-9.52-3.33-3.55,0-6.53,1.07-8.96,3.22-2.42,2.15-3.91,5.14-4.45,8.96h26.92Z"/>
    <path class="cls-2" d="m661.18,506.48l-27.12,71.55h-8.19l-27.12-71.55h7.78l23.44,63.77,23.65-63.77h7.57Z"/>
    <path class="cls-2" d="m664.15,510.06c-1.02-1.02-1.54-2.29-1.54-3.79s.51-2.75,1.54-3.74c1.02-.99,2.25-1.48,3.69-1.48s2.66.5,3.69,1.48c1.02.99,1.54,2.24,1.54,3.74s-.51,2.76-1.54,3.79c-1.02,1.02-2.25,1.53-3.69,1.53s-2.66-.51-3.69-1.53Zm7.27,12.08v55.89h-7.17v-55.89h7.17Z"/>
    <path class="cls-2" d="m683.55,574.39c-4.06-2.97-6.33-7.01-6.81-12.13h7.37c.34,3.14,1.82,5.68,4.45,7.63,2.63,1.94,6.16,2.92,10.59,2.92,3.89,0,6.94-.92,9.16-2.77,2.22-1.84,3.33-4.13,3.33-6.86,0-1.91-.61-3.48-1.84-4.71-1.23-1.23-2.78-2.2-4.66-2.92-1.88-.72-4.42-1.48-7.63-2.3-4.16-1.09-7.54-2.18-10.13-3.28-2.59-1.09-4.8-2.71-6.6-4.86-1.81-2.15-2.71-5.03-2.71-8.65,0-2.73.82-5.25,2.46-7.58,1.64-2.32,3.96-4.16,6.96-5.53,3-1.37,6.41-2.05,10.24-2.05,6,0,10.85,1.52,14.53,4.55,3.69,3.04,5.66,7.22,5.94,12.54h-7.17c-.2-3.28-1.48-5.92-3.84-7.93-2.35-2.01-5.58-3.02-9.67-3.02-3.62,0-6.55.86-8.8,2.56-2.25,1.71-3.38,3.82-3.38,6.35,0,2.18.66,3.98,2,5.37,1.33,1.4,2.98,2.49,4.96,3.28,1.98.79,4.64,1.65,7.98,2.61,4.03,1.09,7.23,2.15,9.62,3.17,2.39,1.02,4.43,2.53,6.14,4.5,1.71,1.98,2.59,4.61,2.66,7.88,0,3-.82,5.68-2.46,8.04-1.64,2.35-3.92,4.21-6.86,5.58-2.93,1.37-6.31,2.05-10.13,2.05-6.41,0-11.65-1.48-15.71-4.45Z"/>
    <path class="cls-2" d="m724.44,510.06c-1.02-1.02-1.54-2.29-1.54-3.79s.51-2.75,1.54-3.74c1.02-.99,2.25-1.48,3.69-1.48s2.66.5,3.69,1.48c1.02.99,1.54,2.24,1.54,3.74s-.51,2.76-1.54,3.79c-1.02,1.02-2.25,1.53-3.69,1.53s-2.66-.51-3.69-1.53Zm7.27,12.08v55.89h-7.17v-55.89h7.17Z"/>
    <path class="cls-2" d="m750.59,575.31c-4.2-2.35-7.51-5.7-9.93-10.03-2.42-4.33-3.63-9.4-3.63-15.2s1.23-10.87,3.69-15.2c2.46-4.33,5.8-7.68,10.03-10.03,4.23-2.36,8.97-3.53,14.23-3.53s10.01,1.18,14.28,3.53c4.26,2.35,7.61,5.7,10.03,10.03,2.42,4.33,3.63,9.4,3.63,15.2s-1.23,10.78-3.68,15.15c-2.46,4.37-5.84,7.73-10.13,10.08-4.3,2.36-9.08,3.53-14.33,3.53s-9.98-1.18-14.18-3.53Zm24.41-5.22c3.14-1.67,5.68-4.2,7.63-7.58s2.92-7.52,2.92-12.44-.96-9.06-2.86-12.44c-1.91-3.38-4.44-5.9-7.58-7.58-3.14-1.67-6.55-2.51-10.24-2.51s-7.1.84-10.23,2.51c-3.14,1.67-5.65,4.2-7.52,7.58-1.88,3.38-2.82,7.52-2.82,12.44s.94,9.06,2.82,12.44c1.88,3.38,4.37,5.9,7.47,7.58,3.1,1.67,6.5,2.51,10.19,2.51s7.1-.84,10.23-2.51Z"/>
    <path class="cls-2" d="m840.92,527.31c4.23,4.13,6.35,10.12,6.35,17.96v32.75h-7.06v-31.94c0-6.07-1.52-10.71-4.55-13.92-3.04-3.21-7.18-4.81-12.44-4.81s-9.69,1.71-12.9,5.12c-3.21,3.41-4.81,8.43-4.81,15.05v30.5h-7.16v-55.89h7.16v9.52c1.77-3.41,4.33-6.02,7.68-7.83,3.34-1.81,7.13-2.71,11.36-2.71,6.69,0,12.14,2.07,16.38,6.19Z"/>
    <path class="cls-2" d="m917.28,561.03h-32.55l-6.24,16.99h-7.58l26.1-70.63h8.09l26,70.63h-7.58l-6.24-16.99Zm-2.15-5.94l-14.13-38.69-14.13,38.69h28.25Z"/>
    <path class="cls-2" d="m942.05,506.48v71.55h-7.16v-71.55h7.16Z"/>
  </g>
  <g>
    <path class="cls-1" d="m194.37,489.8c1.66,2.92,1.16,7.06,1.62,10.72h3.14c.49-3.76,0-7.92,1.7-10.83,1.69-2.92,5.55-4.58,8.62-6.93-.5-.86-1.13-1.94-1.53-2.62-3.74,1.5-7.14,3.95-10.51,3.92-3.35-.03-6.69-2.54-10.16-4.02-.5.87-1.07,1.86-1.53,2.64,3.17,2.48,6.98,4.19,8.65,7.12Z"/>
    <path class="cls-1" d="m228.98,582.35c-2.88-.03-5.03-1.32-6.46-3.82-1.18-2.05-2.39-4.09-3.65-6.22-1.25.75-2.29,1.37-3.78,2.27,6.52,6.57,6.26,13.24.08,19.79,1.54.88,2.59,1.48,3.43,1.96,2.31-3.07,3.95-6.94,6.86-8.64,2.9-1.7,7.08-1.24,10.84-1.75v-3.58c-2.57,0-4.94.02-7.32,0Z"/>
    <path class="cls-1" d="m232.39,557.43c-.64,1.06-1.28,2.13-1.79,2.98,3.09,2.35,6.95,4.01,8.64,6.93,1.69,2.91,1.2,7.09,1.67,10.78h3.1c.52-3.81.08-7.98,1.78-10.89,1.71-2.91,5.57-4.55,8.59-6.83-.54-.9-1.16-1.94-1.77-2.98-12.03,6.88-9.87,5.43-20.23.02Z"/>
    <path class="cls-1" d="m152.77,517.62c3.35.01,6.7,2.51,10.17,3.98.53-.93,1.11-1.97,1.75-3.1-2.12-1.23-4.01-2.38-5.96-3.44-2.8-1.53-4.19-3.81-4.11-7.03.06-2.27.01-4.55.01-6.79h-3.6c-.54,3.86-.11,8.03-1.82,10.94-1.7,2.89-5.55,4.52-8.54,6.76.54.91,1.12,1.89,1.56,2.64,3.75-1.52,7.14-3.97,10.52-3.96Z"/>
    <path class="cls-1" d="m194.3,516.14c1.68,2.94,1.22,7.1,1.73,10.95h3.11c.47-3.76-.03-7.94,1.65-10.85,1.69-2.92,5.56-4.58,8.67-6.94-.52-.84-1.19-1.92-1.62-2.61-3.71,1.5-7.1,3.96-10.48,3.92-3.35-.03-6.67-2.58-10.11-4.06-.55.98-1.13,2.01-1.55,2.74,3.14,2.37,6.96,3.99,8.59,6.84Z"/>
    <path class="cls-1" d="m147.68,543.18c2.91-1.68,7.07-1.2,10.81-1.68v-3.13c-3.95-.52-8.12-.04-11.04-1.73-2.91-1.69-4.55-5.54-6.84-8.56-.92.55-1.94,1.16-2.66,1.6,1.53,3.67,4.04,7.04,4.04,10.41,0,3.36-2.5,6.72-3.97,10.25.9.51,1.94,1.1,2.68,1.52,2.39-3.13,4.06-6.98,6.98-8.67Z"/>
    <path class="cls-1" d="m253.89,543.28c-1.47-2.58-1.43-5.15.09-7.71,1.17-1.96,2.28-3.96,3.52-6.11-1.2-.7-2.23-1.3-3.07-1.78-2.36,3.09-4.01,6.92-6.92,8.62-2.9,1.69-7.05,1.25-10.82,1.77v3.01c3.82.52,7.98.08,10.88,1.77,2.9,1.69,4.56,5.53,6.89,8.58.86-.5,1.89-1.1,3.08-1.8-1.3-2.24-2.49-4.29-3.66-6.34Z"/>
    <path class="cls-1" d="m185.48,543.74c-6.58,6.49-13.17,6.34-19.68.04-.92,1.57-1.56,2.65-2,3.39,3.17,2.45,7.01,4.15,8.68,7.09,1.66,2.91,1.13,7.07,1.56,10.74h3.12c.51-3.79.03-7.98,1.74-10.87,1.75-2.96,5.65-4.65,8.66-6.94-.56-.92-1.15-1.89-2.1-3.45Z"/>
    <path class="cls-1" d="m217.89,564.93h3.08c.54-3.87.11-8.04,1.82-10.95,1.7-2.89,5.57-4.5,8.58-6.75-.55-.92-1.13-1.89-1.59-2.66-3.73,1.52-7.12,4-10.49,3.97-3.35-.03-6.69-2.57-10.17-4.06-.53.93-1.12,1.96-1.53,2.68,3.16,2.46,6.98,4.17,8.66,7.1,1.67,2.91,1.18,7.06,1.64,10.67Z"/>
    <path class="cls-1" d="m175.99,507.04c1.55-.91,2.58-1.52,3.36-1.97-1.49-3.58-3.99-6.95-3.99-10.31,0-3.36,2.5-6.72,4-10.32-.83-.48-1.86-1.07-2.7-1.55-2.32,3.06-3.96,6.94-6.86,8.61-2.98,1.71-7.2,1.24-10.96,1.74v3.08c-.04.27-.09.55-.13.82,9-2.19,14.72,1.27,17.29,9.9Z"/>
    <path class="cls-1" d="m218.4,506.62c2.38-3.1,4.06-6.94,6.98-8.63,2.91-1.68,7.07-1.2,10.75-1.68v-3.07c-3.84-.53-8-.1-10.9-1.8-2.89-1.7-4.52-5.55-6.79-8.57-.86.49-1.85,1.05-2.7,1.53,1.52,3.69,4,7.06,3.99,10.43-.01,3.36-2.53,6.72-4.02,10.26.85.48,1.89,1.07,2.69,1.52Z"/>
    <path class="cls-1" d="m232.61,522.23c6.59-6.6,13.25-6.17,19.77-.07.88-1.55,1.48-2.59,1.94-3.4-3.1-2.36-6.95-4.01-8.64-6.93-1.69-2.91-1.21-7.07-1.71-10.84h-3.14c-.46,3.73.06,7.91-1.63,10.8-1.74,2.97-5.64,4.69-8.67,7.01.54.89,1.16,1.91,2.08,3.42Z"/>
    <path class="cls-1" d="m180.23,574.82c-.68-.5-.93-.72-1.2-.88-.71-.41-1.43-.8-2.05-1.16-2.36,3.13-4,6.99-6.91,8.69-2.9,1.7-7.07,1.23-10.76,1.72v3.09c3.81.5,7.98.02,10.9,1.71,2.92,1.68,4.59,5.52,6.91,8.55.88-.51,1.91-1.12,3.43-2-6.5-6.59-6.3-13.27-.31-19.72Z"/>
    <path class="cls-1" d="m201,589.41c-1.68-2.91-1.22-7.05-1.69-10.63h-3.07c-.5,3.79-.03,7.94-1.71,10.85-1.69,2.92-5.52,4.6-8.57,6.95.49.83,1.1,1.86,2,3.39,6.55-6.36,13.22-6.39,19.82-.08.86-1.55,1.46-2.65,1.88-3.4-3.16-2.46-6.97-4.16-8.66-7.08Z"/>
    <path class="cls-1" d="m163.12,558.04c-3.54,1.5-6.9,4.04-10.26,4.04-3.44,0-6.87-2.49-10.41-3.93-.52.96-1.09,2-1.46,2.69,3.16,2.42,7,4.1,8.69,7.02,1.68,2.91,1.18,7.06,1.65,10.69h3.11c.49-3.78,0-7.93,1.68-10.85,1.68-2.93,5.5-4.63,8.57-7.01-.47-.79-1.08-1.83-1.56-2.65Z"/>
    <path class="cls-1" d="m188.25,540c0,5.24,4.26,9.5,9.5,9.5s9.5-4.26,9.5-9.5-4.26-9.5-9.5-9.5-9.5,4.26-9.5,9.5Zm14.54,0c0,2.78-2.26,5.05-5.05,5.05s-5.05-2.26-5.05-5.05,2.26-5.05,5.05-5.05,5.05,2.26,5.05,5.05Z"/>
  </g>
</svg>