<svg width="24" height="20" viewBox="0 0 24 20" fill="none" xmlns="http://www.w3.org/2000/svg">
<g clip-path="url(#clip0_5574_60398)">
<g filter="url(#filter0_d_5574_60398)">
<path d="M2.00916 6.55489C2.00916 4.26829 3.86281 2.41463 6.14942 2.41463V2.41463C8.43602 2.41463 10.2897 4.26829 10.2897 6.55489V10.5846H2.00916V6.55489Z" fill="#E3EFFF"/>
<path d="M1.74194 10.5827H10.439" stroke="#2388FF" stroke-linecap="round" stroke-linejoin="round"/>
<path d="M13.2101 11.4235C13.2101 9.6706 14.6311 8.24959 16.384 8.24959V8.24959C18.1369 8.24959 19.5579 9.6706 19.5579 11.4235V14.0836H13.2101V11.4235Z" fill="#E3EFFF"/>
<path d="M13.3464 14.0835H19.5586" stroke="#8DC1FF" stroke-linecap="round" stroke-linejoin="round"/>
<path d="M13.3464 17.5846V11.167C13.3464 10.3933 13.6737 9.65121 14.2562 9.10408C14.8387 8.55696 15.6287 8.24959 16.4525 8.24959C17.2763 8.24959 18.0663 8.55696 18.6489 9.10408C19.2314 9.65121 19.5586 10.3933 19.5586 11.167V17.5854" stroke="#8DC1FF" stroke-linecap="round" stroke-linejoin="round"/>
<path d="M1.74194 17.5845V6.49902C1.74194 5.41577 2.20009 4.37688 3.01559 3.6109C3.8311 2.84492 4.93716 2.4146 6.09046 2.4146C7.24376 2.4146 8.34982 2.84492 9.16533 3.6109C9.98083 4.37688 10.439 5.41577 10.439 6.49902V17.5853" stroke="#2388FF" stroke-linecap="round" stroke-linejoin="round"/>
</g>
</g>
<defs>
<filter id="filter0_d_5574_60398" x="-0.758057" y="0.914602" width="22.8167" height="20.1708" filterUnits="userSpaceOnUse" color-interpolation-filters="sRGB">
<feFlood flood-opacity="0" result="BackgroundImageFix"/>
<feColorMatrix in="SourceAlpha" type="matrix" values="0 0 0 0 0 0 0 0 0 0 0 0 0 0 0 0 0 0 127 0" result="hardAlpha"/>
<feOffset dy="1"/>
<feGaussianBlur stdDeviation="1"/>
<feComposite in2="hardAlpha" operator="out"/>
<feColorMatrix type="matrix" values="0 0 0 0 0.1375 0 0 0 0 0.53425 0 0 0 0 1 0 0 0 0.15 0"/>
<feBlend mode="normal" in2="BackgroundImageFix" result="effect1_dropShadow_5574_60398"/>
<feBlend mode="normal" in="SourceGraphic" in2="effect1_dropShadow_5574_60398" result="shape"/>
</filter>
<clipPath id="clip0_5574_60398">
<rect width="24" height="20" fill="white"/>
</clipPath>
</defs>
</svg>
